<?xml version="1.0" encoding="UTF-8"?>
<!DOCTYPE svg PUBLIC "-//W3C//DTD SVG 1.1//EN" "http://www.w3.org/Graphics/SVG/1.1/DTD/svg11.dtd">
<!-- Creator: CorelDRAW 2019 (64 Bit) -->
<svg xmlns="http://www.w3.org/2000/svg" xml:space="preserve" width="172px" height="109px" version="1.1" style="shape-rendering:geometricPrecision; text-rendering:geometricPrecision; image-rendering:optimizeQuality; fill-rule:evenodd; clip-rule:evenodd"
viewBox="0 0 20.24 12.83"
 xmlns:xlink="http://www.w3.org/1999/xlink">
 <defs>
  <style type="text/css">
   <![CDATA[
    .fil24 {fill:#163560;fill-rule:nonzero}
    .fil8 {fill:#233862;fill-rule:nonzero}
    .fil7 {fill:#234375;fill-rule:nonzero}
    .fil21 {fill:#2A4A7C;fill-rule:nonzero}
    .fil15 {fill:#2A4E96;fill-rule:nonzero}
    .fil11 {fill:#2B478B;fill-rule:nonzero}
    .fil4 {fill:#2C3A64;fill-rule:nonzero}
    .fil19 {fill:#2E3552;fill-rule:nonzero}
    .fil6 {fill:#2F539B;fill-rule:nonzero}
    .fil14 {fill:#739AF0;fill-rule:nonzero}
    .fil2 {fill:#AEC3FF;fill-rule:nonzero}
    .fil20 {fill:#CDDBFC;fill-rule:nonzero}
    .fil17 {fill:#D4E1FF;fill-rule:nonzero}
    .fil1 {fill:#D8E8FD;fill-rule:nonzero}
    .fil0 {fill:#DFEBFD;fill-rule:nonzero}
    .fil23 {fill:#E58638;fill-rule:nonzero}
    .fil16 {fill:#EBF3FA;fill-rule:nonzero}
    .fil9 {fill:#ED7D2B;fill-rule:nonzero}
    .fil12 {fill:#ED975D;fill-rule:nonzero}
    .fil10 {fill:#ED985F;fill-rule:nonzero}
    .fil22 {fill:#EF7E29;fill-rule:nonzero}
    .fil3 {fill:#F99746;fill-rule:nonzero}
    .fil18 {fill:#F9DDBF;fill-rule:nonzero}
    .fil25 {fill:#FCA56B;fill-rule:nonzero}
    .fil5 {fill:#FFB27D;fill-rule:nonzero}
    .fil13 {fill:white;fill-rule:nonzero}
   ]]>
  </style>
 </defs>
 <g id="Camada_x0020_1">
  <metadata id="CorelCorpID_0Corel-Layer"/>
  <g id="_1433495085616">
   <path class="fil0" d="M10.15 2.39c0.01,0.04 0.03,0.09 0.04,0.14 0.01,0.09 0,0.24 -0.05,0.33 0,0.01 -0.01,0.02 -0.01,0.03 -0.3,0.54 -1.07,0.43 -1.19,-0.18 -0.02,-0.08 -0.01,-0.2 0.02,-0.29 0.01,-0.02 0.02,-0.04 0.02,-0.06 0.04,-0.07 0.09,-0.14 0.15,-0.19 0.31,-0.31 0.84,-0.21 1.02,0.22zm-1.93 0.85l0.3 -0.03c0.03,0 0.05,0.01 0.07,0.03 0.02,0.03 0.03,0.05 0.05,0.08 0.04,0.05 0.08,0.09 0.12,0.13 0.02,0.02 0.03,0.05 0.02,0.07l-0.12 0.3c-0.01,0.03 0,0.07 0.04,0.08l0.25 0.13c0.03,0.01 0.07,0 0.09,-0.02l0.15 -0.25c0.02,-0.02 0.05,-0.03 0.07,-0.03 0.12,0.03 0.25,0.05 0.37,0.04 0.03,0 0.06,0.02 0.07,0.05l0.05 0.16c0.01,0.04 0.04,0.06 0.08,0.05l0.28 -0.06c0,0 0.01,0 0.01,0 0.03,-0.01 0.04,-0.04 0.04,-0.07l-0.02 -0.22 -0.01 -0.06c0.05,-0.02 0.09,-0.05 0.14,-0.09 0.05,-0.04 0.11,-0.09 0.15,-0.15 0.02,-0.02 0.05,-0.02 0.08,-0.01l0.23 0.09c0.04,0.01 0.07,0 0.09,-0.03l0.1 -0.2 0.02 -0.06c0.02,-0.03 0.01,-0.07 -0.02,-0.08l-0.2 -0.14c-0.03,-0.01 -0.04,-0.04 -0.03,-0.07 0.02,-0.08 0.03,-0.16 0.03,-0.24 0,-0.01 0,-0.01 0,-0.02 0,0 0,-0.01 0,-0.01 0,-0.03 0.02,-0.05 0.04,-0.06l0.28 -0.08c0,0 0,0 0.01,-0.01 0.02,-0.01 0.04,-0.04 0.03,-0.07l-0.05 -0.28c-0.01,-0.03 -0.04,-0.05 -0.08,-0.05l-0.31 0.03c-0.02,0.01 -0.05,-0.01 -0.06,-0.03 -0.03,-0.05 -0.06,-0.1 -0.1,-0.15 -0.02,-0.03 -0.04,-0.05 -0.06,-0.07 -0.02,-0.02 -0.02,-0.05 -0.02,-0.07l0.12 -0.29c0.01,-0.03 -0.01,-0.06 -0.04,-0.08l-0.25 -0.12c-0.03,-0.02 -0.07,-0.01 -0.09,0.02l-0.12 0.19c-0.02,0.03 -0.05,0.04 -0.08,0.03 -0.11,-0.04 -0.23,-0.06 -0.35,-0.06 -0.03,0 -0.06,-0.02 -0.07,-0.05l-0.07 -0.25c-0.02,-0.03 -0.05,-0.05 -0.08,-0.04l-0.28 0.05c-0.04,0.01 -0.06,0.04 -0.05,0.08l0 0.01 0.03 0.26c0,0.03 -0.01,0.05 -0.04,0.07l0 0c-0.06,0.03 -0.12,0.06 -0.17,0.11 -0.03,0.02 -0.06,0.04 -0.09,0.07 -0.02,0.02 -0.04,0.02 -0.07,0.01l-0.24 -0.09c-0.03,-0.02 -0.07,0 -0.08,0.03l-0.13 0.25c0,0.01 0,0.02 -0.01,0.03 0,0.02 0.01,0.05 0.04,0.06l0.16 0.1c0.02,0.02 0.03,0.04 0.03,0.06 0,0.01 0,0.02 0,0.02 -0.05,0.15 -0.07,0.3 -0.06,0.46 0,0.02 -0.02,0.05 -0.04,0.06 0,0 0,0 -0.01,0l-0.22 0.07c-0.03,0.01 -0.05,0.05 -0.05,0.08l0.01 0.01 0.05 0.27c0.01,0.03 0.04,0.06 0.07,0.05z"/>
   <path class="fil0" d="M17.76 2.19c-0.29,-0.58 -1.29,-0.18 -1.29,-0.18 0,0 -0.49,1.21 -0.69,1.28 -0.2,0.06 0.22,-1.12 0.22,-1.12 -0.41,0.04 -1.32,0.73 -1.32,0.73 0,0 0.31,1.24 0.1,1.25 -0.21,0.02 -0.22,-1.11 -0.22,-1.11 -0.36,0.19 -0.63,0.71 -0.63,0.71 -0.3,0.82 0.76,1.16 0.76,1.16 0,0 0.1,0.44 -0.07,0.99l0 0c0,0 -0.04,0.1 -0.07,0.27l0.11 -0.02c0,-0.03 0,-0.06 0.01,-0.09l0 0 0 0c0,-0.02 0.01,-0.04 0.02,-0.07l0 0c0.02,-0.07 0.03,-0.12 0.03,-0.16l0 0c0.06,-0.21 0.15,-0.5 0.23,-0.57 0,0 -0.01,-0.01 -0.03,-0.04 0.01,0.01 0.02,0.03 0.03,0.04 0.26,0.35 1.16,0.24 1.64,0.03 0.48,-0.2 0.23,-0.29 -0.08,-0.47 -0.31,-0.17 -0.86,0 -1.05,-0.06 -0.18,-0.06 0.04,-0.19 0.38,-0.23 0.34,-0.04 0.57,0.26 1.12,0.2 0.55,-0.06 0.75,-1.15 0.75,-1.15 -0.34,0.19 -1.05,0.12 -1.1,0 -0.05,-0.13 0.94,-0.31 1.08,-0.38 0.15,-0.07 0.35,-0.43 0.07,-1.01z"/>
   <path class="fil0" d="M1.29 6.66c-0.11,-0.64 0.92,-0.92 0.92,-0.92 0,0 1.12,0.68 1.32,0.61 0.2,-0.07 -0.84,-0.77 -0.84,-0.77 0.35,-0.21 1.49,-0.2 1.49,-0.2 0,0 0.49,1.18 0.67,1.06 0.18,-0.11 -0.49,-1.02 -0.49,-1.02 0.4,-0.06 0.93,0.19 0.93,0.19 0.73,0.47 0.09,1.39 0.09,1.39 0,0 0.18,0.41 0.64,0.75l0 0c0,0 0.1,0.05 0.22,0.17l-0.09 0.05c-0.02,-0.02 -0.04,-0.05 -0.06,-0.06l-0.01 -0.01 0 0c-0.01,-0.01 -0.03,-0.02 -0.05,-0.04l0 0 0 0c-0.06,-0.05 -0.1,-0.08 -0.13,-0.11l0 0c-0.17,-0.13 -0.41,-0.31 -0.52,-0.32 0,0 0,-0.02 0,-0.05 0,0.02 0,0.03 0,0.05 0,0.43 -0.79,0.89 -1.3,1.01 -0.5,0.13 -0.36,-0.1 -0.21,-0.43 0.14,-0.32 0.69,-0.52 0.8,-0.67 0.11,-0.16 -0.15,-0.13 -0.44,0.04 -0.3,0.17 -0.31,0.55 -0.78,0.83 -0.47,0.28 -1.29,-0.47 -1.29,-0.47 0.39,-0.05 0.91,-0.53 0.88,-0.66 -0.03,-0.13 -0.93,0.31 -1.09,0.35 -0.16,0.03 -0.54,-0.14 -0.66,-0.77z"/>
   <path class="fil0" d="M18.37 10.75c0.51,-0.4 -0.08,-1.3 -0.08,-1.3 0,0 -1.29,-0.23 -1.39,-0.41 -0.11,-0.18 1.14,-0.02 1.14,-0.02 -0.12,-0.39 -0.98,-1.14 -0.98,-1.14 0,0 -1.15,0.56 -1.21,0.35 -0.06,-0.2 1.04,-0.44 1.04,-0.44 -0.26,-0.31 -0.82,-0.47 -0.82,-0.47 -0.86,-0.13 -0.98,0.98 -0.98,0.98 0,0 -0.41,0.19 -0.98,0.13l0 0c0,0 -0.11,-0.02 -0.28,-0.01l0.04 0.1c0.03,-0.01 0.06,-0.01 0.08,-0.01l0.01 0c0.01,0 0.04,0 0.07,0l0 0 0 0c0.07,0.01 0.12,0.01 0.16,0.01l0 0c0.22,0.01 0.52,0.04 0.61,0.1 0,0 0.01,-0.01 0.03,-0.04 -0.01,0.02 -0.02,0.03 -0.03,0.04 -0.29,0.32 0,1.19 0.3,1.62 0.29,0.43 0.34,0.17 0.44,-0.18 0.11,-0.34 -0.17,-0.84 -0.15,-1.04 0.02,-0.19 0.2,0 0.31,0.33 0.11,0.32 -0.14,0.61 0.02,1.13 0.17,0.53 1.28,0.51 1.28,0.51 -0.25,-0.3 -0.33,-1.01 -0.22,-1.08 0.11,-0.08 0.49,0.85 0.59,0.98 0.1,0.13 0.49,0.26 1,-0.14z"/>
   <path class="fil1" d="M13.81 3.05l-0.05 0c0.04,-0.37 0.18,-1.19 0.6,-1.75 0.02,-0.04 0.06,-0.06 0.1,-0.06 0.07,0 0.13,0.05 0.14,0.13 0,0 0,0.01 0,0.01 0,0.19 -0.51,0.99 -0.79,1.67z"/>
   <path class="fil1" d="M14.11 3.05l-0.2 0c0.23,-0.51 0.66,-1.26 1.27,-1.71 0.03,-0.02 0.06,-0.03 0.09,-0.03 0.04,0 0.08,0.02 0.1,0.05 0.03,0.04 0.05,0.1 0.03,0.2 -0.05,0.21 -0.74,0.84 -1.29,1.49z"/>
   <path class="fil1" d="M4.83 4.92c-0.45,-0.35 -0.99,-0.68 -1.05,-0.81 -0.01,0 -0.01,0 -0.01,0 -0.03,-0.08 0.03,-0.16 0.11,-0.16 0.01,0 0.03,0 0.04,0.01 0.38,0.18 0.69,0.52 0.91,0.79l0 0.17z"/>
   <path class="fil1" d="M4.83 5.2c-0.68,-0.29 -1.47,-0.51 -1.59,-0.65 -0.05,-0.06 -0.06,-0.12 -0.05,-0.16 0.01,-0.05 0.06,-0.09 0.11,-0.09 0.01,0 0.02,0 0.02,0 0.58,0.1 1.13,0.44 1.51,0.72l0 0.18z"/>
   <path class="fil2" d="M16.2 3.29l0 7.59c0,0.13 -0.09,0.24 -0.21,0.24l-10.95 0c-0.11,0 -0.21,-0.11 -0.21,-0.24l0 -7.59c0,-0.13 0.1,-0.24 0.21,-0.24l10.95 0c0.12,0 0.21,0.11 0.21,0.24z"/>
   <path class="fil3" d="M15.66 2.86l0 0.61 -12.21 0 0 -0.61c0,-0.13 0.1,-0.23 0.23,-0.23l11.75 0c0.13,0 0.23,0.1 0.23,0.23z"/>
   <path class="fil0" d="M3.82 3.05c0,-0.06 0.05,-0.11 0.11,-0.11 0.06,0 0.1,0.05 0.1,0.11 0,0.06 -0.04,0.11 -0.1,0.11 -0.06,0 -0.11,-0.05 -0.11,-0.11z"/>
   <path class="fil0" d="M4.24 3.05c0,-0.06 0.05,-0.11 0.11,-0.11 0.06,0 0.11,0.05 0.11,0.11 0,0.06 -0.05,0.11 -0.11,0.11 -0.06,0 -0.11,-0.05 -0.11,-0.11z"/>
   <path class="fil0" d="M4.67 3.05c0,-0.06 0.05,-0.11 0.11,-0.11 0.06,0 0.11,0.05 0.11,0.11 0,0.06 -0.05,0.11 -0.11,0.11 -0.06,0 -0.11,-0.05 -0.11,-0.11z"/>
   <path class="fil0" d="M12.3 1.55c0,0.02 0.01,0.04 0.02,0.07 0,0.04 -0.01,0.12 -0.03,0.16 0,0 0,0.01 0,0.01 -0.15,0.27 -0.52,0.22 -0.58,-0.08 -0.01,-0.04 -0.01,-0.1 0.01,-0.14 0,-0.01 0.01,-0.02 0.01,-0.03 0.02,-0.04 0.04,-0.07 0.07,-0.1 0.15,-0.15 0.41,-0.1 0.5,0.11zm-0.94 0.42l0.15 -0.02c0.01,0 0.02,0 0.03,0.01 0.01,0.02 0.01,0.03 0.02,0.04 0.02,0.03 0.04,0.05 0.06,0.07 0.01,0.01 0.01,0.02 0.01,0.03l-0.06 0.15c0,0.01 0,0.03 0.02,0.04l0.13 0.06c0.01,0.01 0.03,0 0.04,-0.01l0.07 -0.12c0.01,-0.01 0.02,-0.02 0.04,-0.01 0.05,0.01 0.11,0.02 0.17,0.01 0.02,0 0.03,0.01 0.04,0.03l0.02 0.08c0.01,0.01 0.02,0.02 0.04,0.02l0.14 -0.03c0,0 0,0 0.01,0 0.01,-0.01 0.01,-0.02 0.01,-0.03l-0.01 -0.11 0 -0.03c0.02,-0.01 0.04,-0.03 0.06,-0.04 0.03,-0.02 0.06,-0.05 0.08,-0.07 0.01,-0.01 0.02,-0.02 0.04,-0.01l0.11 0.04c0.02,0.01 0.04,0 0.04,-0.01l0.05 -0.1 0.01 -0.03c0.01,-0.01 0.01,-0.03 -0.01,-0.04l-0.1 -0.06c-0.01,-0.01 -0.01,-0.02 -0.01,-0.04 0.01,-0.04 0.01,-0.08 0.01,-0.12 0,0 0,0 0,-0.01 0,0 0,0 0,0 0.01,-0.01 0.01,-0.02 0.03,-0.03l0.13 -0.04c0,0 0,0 0,0 0.02,-0.01 0.03,-0.02 0.02,-0.04l-0.03 -0.13c0,-0.02 -0.01,-0.03 -0.03,-0.03l-0.15 0.02c-0.02,0 -0.03,-0.01 -0.03,-0.02 -0.02,-0.02 -0.03,-0.05 -0.05,-0.07 -0.01,-0.01 -0.02,-0.03 -0.03,-0.04 -0.01,-0.01 -0.01,-0.02 -0.01,-0.03l0.06 -0.14c0,-0.02 -0.01,-0.03 -0.02,-0.04l-0.12 -0.06c-0.02,-0.01 -0.04,0 -0.05,0.01l-0.06 0.09c-0.01,0.02 -0.02,0.02 -0.04,0.02 -0.05,-0.02 -0.11,-0.03 -0.17,-0.03 -0.01,0 -0.02,-0.01 -0.03,-0.03l-0.04 -0.12c0,-0.01 -0.02,-0.02 -0.03,-0.02l-0.14 0.03c-0.02,0 -0.03,0.02 -0.02,0.03l0 0.01 0.01 0.13c0,0.01 -0.01,0.02 -0.02,0.03l0 0c-0.03,0.02 -0.06,0.03 -0.08,0.05 -0.02,0.01 -0.03,0.03 -0.04,0.04 -0.01,0.01 -0.03,0.01 -0.04,0.01l-0.11 -0.05c-0.02,-0.01 -0.04,0 -0.05,0.01l-0.06 0.13c0,0 0,0.01 0,0.01 0,0.01 0,0.02 0.01,0.03l0.08 0.05c0.01,0.01 0.02,0.02 0.02,0.03 0,0 0,0.01 0,0.01 -0.03,0.07 -0.04,0.15 -0.03,0.22 0,0.01 -0.01,0.03 -0.02,0.03 0,0 0,0 0,0l-0.11 0.04c-0.02,0 -0.03,0.02 -0.02,0.03l0 0.01 0.02 0.13c0.01,0.02 0.02,0.03 0.04,0.03z"/>
   <path class="fil4" d="M4.59 8.83c0,0 0.01,-0.18 -0.18,-0.18 0,0 0.06,0.02 0.09,0.05 0,0 -0.13,-0.07 -0.27,0.04 -0.13,0.12 -0.05,0.4 -0.09,0.46 -0.04,0.05 -0.21,0.06 -0.19,0.24 0.02,0.17 0.52,0.39 0.49,0.54 0,0 0.19,-0.29 0.06,-0.42 0,0 0.06,0.06 0.07,0.14 0,0 0.02,-0.15 -0.08,-0.2 -0.08,-0.04 -0.15,-0.19 -0.14,-0.22 0.01,-0.03 0.24,-0.45 0.24,-0.45z"/>
   <path class="fil5" d="M4.39 9.68c0,0 0.15,0.62 0.3,0.74 0.08,0.07 0.34,0.24 0.34,0.24l-0.1 0.04c0,0 -0.36,-0.12 -0.45,-0.22 -0.08,-0.09 -0.3,-0.57 -0.3,-0.57l0.21 -0.23z"/>
   <path class="fil6" d="M3 10.76c0,0 0,0 0,0.01 0.04,0.05 0.11,0.19 0.19,0.34 0.04,0.07 0.08,0.15 0.12,0.22 0.07,0.12 0.13,0.23 0.16,0.29 0.04,0.05 0.06,0.09 0.08,0.11l0 0c0,0.01 0,0.01 0,0.02 0,0.05 0,0.1 0,0.15 0.05,0.49 0.38,0.75 0.38,0.75l0.1 0.02c0,0 -0.14,-0.52 -0.18,-0.81 -0.01,-0.05 -0.01,-0.09 -0.01,-0.12 0.01,-0.07 0,-0.18 -0.03,-0.31 -0.04,-0.23 -0.13,-0.51 -0.2,-0.73 -0.01,-0.02 -0.14,-0.52 -0.14,-0.52 -0.12,0.1 -0.54,0.14 -0.54,0.14 0,0 -0.08,0.18 0.07,0.44z"/>
   <path class="fil7" d="M4.24 12.79l-0.41 0c0,0 -0.01,-0.06 0.01,-0.11 0.02,-0.04 0.05,-0.04 0,-0.12 0.03,0.03 0.11,0.04 0.17,0.03 0.01,0.02 0.05,0.1 0.07,0.11 0.03,0.02 0.15,0.02 0.16,0.09z"/>
   <path class="fil8" d="M3 10.76c0,0 0,0 0,0.01 0.04,0.05 0.21,0.38 0.29,0.53 -0.09,-0.39 -0.02,-0.78 -0.02,-0.78l-0.27 0.24z"/>
   <path class="fil4" d="M4.53 8.81c0,-0.02 -0.23,0.1 -0.25,0.12 -0.11,0.12 -0.07,0.28 -0.01,0.28 0.04,0 0.03,0.07 0.03,0.07l0.46 -0.19c0,0 -0.06,-0.32 -0.23,-0.28z"/>
   <path class="fil3" d="M4.38 9.59c0,0 0.07,0.14 0.06,0.25 0,0 -0.08,0.13 -0.3,0.17 0,0 0.19,-0.42 0.24,-0.42z"/>
   <path class="fil6" d="M3.32 10.35l0 -0.07c-0.15,0.02 -0.53,-0.19 -0.53,-0.19 0,0 -0.16,0.11 -0.18,0.42 -0.01,0.14 -0.08,0.77 -0.08,0.96 -0.01,0.07 -0.01,0.12 -0.01,0.14l0 0c0,0 0,0.01 -0.01,0.01 -0.03,0.04 -0.05,0.09 -0.08,0.13 -0.23,0.44 -0.11,1.03 -0.11,1.03l0.05 -0.02c0,0 0.2,-0.61 0.33,-0.88 0.02,-0.04 0.04,-0.08 0.06,-0.1 0.05,-0.05 0.1,-0.15 0.15,-0.28 0.1,-0.22 0.41,-1.15 0.41,-1.15z"/>
   <path class="fil7" d="M2.65 12.79l-0.41 0c0,0 -0.01,-0.06 0.01,-0.11 0.02,-0.04 0.05,-0.06 0.04,-0.12 0.03,0.03 0.07,0.06 0.13,0.05 0.01,0.01 0.05,0.08 0.07,0.09 0.03,0.02 0.15,0.02 0.16,0.09z"/>
   <path class="fil3" d="M4.11 10.1c-0.05,0 0.01,0.05 -0.07,0.06 -0.1,0.01 -0.22,0.02 -0.27,0.04 -0.03,0.01 -0.04,0.02 -0.04,0.03 -0.03,0.08 -0.19,0.21 -0.19,0.21 -0.72,-0.03 -0.76,-0.35 -0.76,-0.35 0.46,-0.45 0.86,-0.7 1.18,-0.73 0.08,-0.01 0.19,0 0.24,0.02 0.12,0.06 0.18,0.21 0.18,0.21 0,0 -0.06,0.47 -0.27,0.51z"/>
   <path class="fil9" d="M4.04 10.16c-0.1,0.01 -0.22,0.02 -0.27,0.04 -0.03,-0.36 0.14,-0.63 0.14,-0.63 0,0 0.11,0.45 0.13,0.59z"/>
   <path class="fil5" d="M4.2 9.41c0.02,0.07 0.08,0.25 0.18,0.18 0,-0.01 0.02,-0.05 0.04,-0.09 0.03,-0.05 0.06,-0.11 0.06,-0.11l-0.15 -0.13 -0.01 -0.01c-0.04,0.07 -0.08,0.1 -0.11,0.13 -0.01,0.01 -0.02,0.02 -0.01,0.03z"/>
   <path class="fil10" d="M4.48 9.39c0,0 -0.03,0.06 -0.06,0.11 -0.1,-0.06 -0.1,-0.18 -0.09,-0.24l0.15 0.13z"/>
   <path class="fil5" d="M4.49 9.46c0,0 -0.23,-0.13 -0.15,-0.27 0.08,-0.15 0.11,-0.26 0.26,-0.18 0.15,0.07 0.15,0.15 0.13,0.2 -0.01,0.05 -0.18,0.28 -0.24,0.25z"/>
   <path class="fil4" d="M4.77 9.13c-0.01,-0.07 -0.04,-0.07 -0.06,-0.07 -0.09,-0.14 -0.23,-0.09 -0.23,-0.09 -0.07,0.1 -0.18,0.11 -0.18,0.11 0,0 0.02,0.05 0.13,0.09 0.04,0 0.08,0 0.11,-0.01 -0.07,0.04 -0.15,0.06 -0.15,0.06 0.14,0.01 0.28,-0.12 0.3,-0.14 0,0.02 0.02,0.07 0.01,0.1 -0.01,0.04 -0.05,0.12 -0.03,0.13 0,0 0.12,-0.09 0.1,-0.18z"/>
   <polygon class="fil11" points="6.87,12.27 5.13,11.42 5.35,10.97 7.09,11.81 "/>
   <path class="fil11" d="M4.59 11.52c-0.16,-0.08 -0.27,-0.22 -0.31,-0.4 -0.02,-0.07 0.03,-0.14 0.1,-0.15 0.07,-0.02 0.14,0.03 0.15,0.1 0.02,0.09 0.09,0.17 0.17,0.21 0.16,0.08 0.35,0.02 0.43,-0.14 0.07,-0.16 0.01,-0.35 -0.15,-0.42 -0.07,-0.04 -0.15,-0.04 -0.23,-0.02 -0.07,0.02 -0.14,-0.02 -0.16,-0.09 -0.02,-0.07 0.02,-0.14 0.09,-0.16 0.14,-0.04 0.28,-0.03 0.41,0.03 0.29,0.14 0.41,0.49 0.27,0.77 -0.14,0.29 -0.49,0.41 -0.77,0.27z"/>
   <path class="fil11" d="M7.04 12.71c-0.28,-0.13 -0.4,-0.48 -0.26,-0.77 0.14,-0.28 0.48,-0.4 0.77,-0.26 0.13,0.06 0.23,0.17 0.28,0.3 0.03,0.07 -0.01,0.15 -0.07,0.17 -0.07,0.03 -0.15,0 -0.17,-0.07 -0.03,-0.07 -0.09,-0.13 -0.16,-0.17 -0.15,-0.07 -0.34,-0.01 -0.42,0.15 -0.08,0.15 -0.01,0.34 0.15,0.42 0.08,0.04 0.18,0.04 0.27,0 0.07,-0.03 0.14,0 0.17,0.06 0.04,0.07 0.01,0.14 -0.06,0.18 -0.16,0.07 -0.34,0.07 -0.5,-0.01z"/>
   <path class="fil8" d="M6.46 11.87l-0.91 -0.45c-0.03,-0.01 -0.04,-0.04 -0.03,-0.07l0.03 -0.05c0.01,-0.02 0.04,-0.04 0.07,-0.02l0.91 0.44c0.03,0.02 0.04,0.05 0.03,0.07l-0.03 0.05c-0.01,0.03 -0.04,0.04 -0.07,0.03z"/>
   <path class="fil5" d="M4.36 11.06c0,0 0,0.04 0.02,0.06 0.02,0.02 0.07,0.08 0.07,0.11 0,0 0,0.01 -0.01,0.01 -0.01,0 -0.05,-0.04 -0.07,-0.04 0,0 0.01,0.07 0.02,0.08 0.01,0.02 0.03,0.09 0.02,0.1 0,0.02 -0.11,-0.07 -0.15,-0.11 -0.03,-0.05 0,-0.23 0,-0.23l0.1 0.02z"/>
   <path class="fil5" d="M4.14 9.51c0,0 -0.27,-0.01 -0.32,0.16 -0.05,0.17 0.09,0.85 0.12,0.92 0.05,0.13 0.32,0.5 0.32,0.5l0.1 -0.03c0,0 -0.18,-0.56 -0.22,-0.62 -0.06,-0.08 0.08,-0.85 0,-0.93z"/>
   <path class="fil3" d="M3.76 9.9c0,0 0.26,0.05 0.42,-0.04 0,0 0.14,-0.42 -0.06,-0.4 -0.19,0.02 -0.3,0.08 -0.31,0.18 0,0.09 -0.05,0.26 -0.05,0.26z"/>
   <path class="fil5" d="M4.9 10.39c-0.01,0 -0.04,0 -0.04,0.01 -0.02,0.01 -0.04,0.03 0,0.05 0.05,0.02 0.15,0.01 0.14,0 -0.01,-0.05 -0.03,-0.07 -0.1,-0.06z"/>
   <path class="fil5" d="M6.33 3.7c-0.01,0.01 -0.01,0.03 0,0.05l0 0c0.01,0.03 0.05,0.07 0.09,0.1 0.01,0.01 0.01,0.01 0.02,0.02 0,0 0,0 0,0 0,0 0,0 0.01,0 0.04,0.04 0.02,0.05 0.1,0.13 0.09,0.09 0.15,0.1 0.16,0.09 0.02,-0.01 -0.01,-0.06 -0.04,-0.11 0,-0.01 -0.01,-0.01 -0.01,-0.01 0,-0.01 -0.01,-0.02 -0.01,-0.02 -0.04,-0.07 -0.03,-0.1 -0.02,-0.2 0.01,-0.08 0.12,-0.44 0.12,-0.44l-0.17 -0.03c0,0 -0.05,0.29 -0.1,0.33 -0.03,0.03 -0.07,0.03 -0.09,0.05 -0.01,0 -0.01,0 -0.01,0 -0.02,0.01 -0.03,0.02 -0.05,0.04z"/>
   <path class="fil8" d="M6.33 3.7c-0.01,0.01 -0.01,0.03 0,0.05l0 0c0.01,0.03 0.05,0.07 0.09,0.1 0.01,0.01 0.01,0.01 0.02,0.02 0,0 0,0 0,0 0,0 0,0 0.01,0 0.04,0.04 0.02,0.05 0.1,0.13 0.09,0.09 0.15,0.1 0.16,0.09 0.02,-0.01 -0.01,-0.06 -0.04,-0.11 -0.02,-0.01 -0.1,-0.04 -0.16,-0.12 -0.05,-0.07 -0.09,-0.15 -0.12,-0.2 -0.01,0 -0.01,0 -0.01,0 -0.02,0.01 -0.03,0.02 -0.05,0.04z"/>
   <path class="fil5" d="M7.69 3.59c0.01,0.05 0.09,0.05 0.17,0.02 0.08,-0.02 0.06,0.01 0.18,0 0.12,-0.02 0.16,-0.06 0.16,-0.08 0,-0.01 -0.06,-0.02 -0.12,-0.03 -0.01,0 -0.01,0 -0.02,0 -0.07,-0.01 -0.12,-0.05 -0.19,-0.09 -0.06,-0.04 -0.15,-0.18 -0.15,-0.18l-0.16 0.01c0,0 0.08,0.13 0.12,0.19 0.02,0.03 0.01,0.07 0.01,0.11 0,0.01 0,0.03 0,0.05z"/>
   <path class="fil8" d="M7.86 3.61c0.08,-0.02 0.06,0.01 0.18,0 0.12,-0.02 0.16,-0.06 0.16,-0.08 0,-0.01 -0.06,-0.02 -0.12,-0.03l0 0c0,0 -0.07,0.05 -0.17,0.06 -0.08,0 -0.16,-0.02 -0.22,-0.02 0,0.01 0,0.03 0,0.05 0.01,0.05 0.09,0.05 0.17,0.02z"/>
   <path class="fil4" d="M7.07 2.56l-0.15 0.4 -0.2 0.54c0,0 -0.05,0 -0.1,-0.01 -0.05,-0.02 -0.1,-0.05 -0.1,-0.05 0,0 0.05,-0.57 0.16,-0.9 0.02,-0.09 0.05,-0.15 0.08,-0.19 0.16,-0.19 0.31,0.21 0.31,0.21z"/>
   <path class="fil6" d="M6.92 1.91c-0.1,-0.03 -0.38,0.01 -0.67,0.07l-0.06 -0.1 -0.61 -0.05c0,0 -0.2,0.45 -0.09,0.73 0.02,0.05 0.05,0.07 0.1,0.07l0.01 0c0,0 0.37,0 0.49,0 0.3,0 0.64,-0.21 0.69,-0.21 0.07,-0.02 0.1,0.12 0.17,0.28 0.07,0.15 0.68,0.67 0.68,0.67 0,0 0.09,0 0.13,-0.02 0.04,-0.01 0.05,-0.03 0.05,-0.03 0,0 -0.67,-1.34 -0.89,-1.41z"/>
   <path class="fil11" d="M5.99 0.01c-0.08,-0.02 -0.2,0 -0.22,0 -0.24,0.02 -0.31,0.29 -0.28,0.49 0.03,0.18 -0.06,0.23 -0.17,0.38 -0.22,0.3 -0.08,0.55 0.1,0.61 0.1,0.04 0.25,-0.06 0.25,-0.06 0,0 0.45,-0.29 0.63,-0.46 0.31,-0.12 -0.09,-0.9 -0.31,-0.96z"/>
   <path class="fil5" d="M6.03 0.86c0,0.03 -0.1,0.07 -0.18,0.05 -0.07,-0.01 -0.15,-0.1 -0.14,-0.11 0.03,-0.01 0.05,-0.04 0.03,-0.22l0.02 0 0.23 0.03c0,0 0,0.07 0.01,0.14 0,0.05 0.02,0.08 0.03,0.11z"/>
   <path class="fil12" d="M5.99 0.61c0,0 0,0.07 0.01,0.14 -0.13,0 -0.21,-0.11 -0.24,-0.17l0.23 0.03z"/>
   <path class="fil5" d="M6.04 0.67c0,0 -0.3,0.03 -0.32,-0.16 -0.01,-0.19 -0.06,-0.32 0.13,-0.35 0.19,-0.02 0.24,0.05 0.26,0.11 0.02,0.06 0.01,0.38 -0.07,0.4z"/>
   <path class="fil11" d="M6.01 0.13c0,0 -0.04,0.24 -0.21,0.29 -0.13,0.04 -0.19,0.02 -0.19,0.02 0,0 0.06,-0.08 0.09,-0.2 0,-0.03 0.03,-0.06 0.06,-0.07 0.09,-0.03 0.2,-0.11 0.25,-0.04z"/>
   <path class="fil11" d="M5.95 0.18c0,0 0.06,0.02 0.11,0.09 0.03,0.04 0.06,0.14 0.05,0.19 0,0 0.06,-0.22 -0.02,-0.3 -0.08,-0.08 -0.14,0.02 -0.14,0.02z"/>
   <path class="fil3" d="M5.48 1.49c0,0.02 0.01,0.04 0.01,0.06 0.01,0.03 0.01,0.06 0.01,0.09 0.01,0.07 0.01,0.12 0.02,0.16 0,0.03 0.01,0.06 0.02,0.1 0.01,0.03 0.34,0.06 0.53,0.05 0.06,0 0.11,-0.01 0.12,-0.03 0.07,-0.06 0.06,0.07 0.07,-0.54 0.01,-0.3 -0.25,-0.57 -0.25,-0.57 0,0 -0.02,0.13 -0.28,-0.02 -0.01,-0.01 -0.11,0.14 -0.21,0.33 -0.1,0.2 -0.07,0.24 -0.04,0.37z"/>
   <path class="fil11" d="M6.92 2.96l-0.2 0.54c0,0 -0.05,0 -0.1,-0.01 -0.05,-0.02 -0.1,-0.05 -0.1,-0.05 0,0 0.05,-0.57 0.16,-0.9l0.24 0.42z"/>
   <path class="fil3" d="M6.01 0.81c0,0 0.26,0.05 0.29,0.16 0.04,0.11 0.25,0.75 0.25,0.75 0,0 -0.17,0.06 -0.23,-0.01 -0.06,-0.06 -0.21,-0.57 -0.21,-0.57l-0.1 -0.33z"/>
   <path class="fil13" d="M5.97 0.55c0,0 0.01,0.04 0.05,0.04 0.03,0 0.04,-0.01 0.05,-0.02 0,0 0.01,-0.02 0.01,-0.02 0,0 -0.06,-0.01 -0.11,0z"/>
   <path class="fil9" d="M5.5 1.64c0.01,0.07 0.01,0.12 0.02,0.16 0.24,0.01 0.56,-0.18 0.56,-0.18l-0.58 0.02z"/>
   <path class="fil9" d="M6.08 1.46c0,0 -0.38,-0.01 -0.44,-0.22 -0.07,-0.24 -0.15,0.09 -0.15,0.09l0.05 0.21 0.41 0 0.13 -0.08z"/>
   <path class="fil14" d="M6.73 0.88l-0.02 -0.05c-0.02,-0.05 -0.07,-0.08 -0.13,-0.08l-0.38 0 0 1.24 1.55 0 0 -1.01 -0.88 0c-0.06,0 -0.12,-0.04 -0.14,-0.1z"/>
   <polygon class="fil13" points="6.44,1.5 6.44,1.41 6.75,1.28 6.75,1.37 6.53,1.46 6.75,1.55 6.75,1.64 "/>
   <polygon class="fil13" points="7.08,1.17 7.16,1.17 6.88,1.77 6.79,1.77 "/>
   <polygon class="fil13" points="7.51,1.41 7.51,1.5 7.2,1.64 7.2,1.55 7.42,1.46 7.2,1.37 7.2,1.28 "/>
   <path class="fil5" d="M6.08 1.51l0.02 -0.04c0,0 0.03,-0.01 0.06,-0.03 0.03,-0.02 0.03,-0.06 0.04,-0.06l0 0.08 0 0c0.08,0.02 0.17,0 0.17,0.02 0.01,0.05 -0.03,0.08 -0.07,0.09 -0.02,0.02 -0.05,0.04 -0.1,0.02 -0.04,-0.01 -0.09,-0.02 -0.09,-0.02l-0.03 -0.06z"/>
   <path class="fil3" d="M5.73 0.79c0,0 -0.24,0.01 -0.3,0.11 -0.06,0.09 -0.14,0.57 -0.11,0.74 0.04,0.16 0.81,-0.03 0.81,-0.03l-0.02 -0.15c0,0 -0.45,0 -0.48,-0.05 -0.03,-0.08 0.1,-0.62 0.1,-0.62z"/>
   <path class="fil5" d="M6.9 0.98c0,0.01 0.04,0.07 0.1,0.06 0.03,-0.01 0.07,-0.08 0.03,-0.1 -0.06,-0.02 -0.12,0.02 -0.13,0.04z"/>
   <polygon class="fil15" points="9.28,4.32 9.27,4.32 10.17,2.63 10.18,2.63 "/>
   <polygon class="fil15" points="13.47,3.73 12.46,2.63 12.46,2.63 13.48,3.72 "/>
   <path class="fil16" d="M14.1 4.04c0.02,0.11 -0.01,0.22 -0.07,0.3 -0.06,0.08 -0.15,0.14 -0.26,0.15l-4.53 0.63c-0.23,0.03 -0.45,-0.13 -0.48,-0.34 -0.01,-0.11 0.02,-0.22 0.09,-0.3 0.07,-0.09 0.16,-0.14 0.28,-0.16l4.53 -0.62c0.22,-0.03 0.41,0.12 0.44,0.34z"/>
   <path class="fil3" d="M14.1 4.04c0.02,0.11 -0.01,0.22 -0.07,0.3 -0.06,0.08 -0.15,0.14 -0.26,0.15l-0.82 0.12 -0.11 -0.8 0.82 -0.11c0.22,-0.03 0.41,0.12 0.44,0.34z"/>
   <path class="fil13" d="M13.46 3.93c-0.07,0.07 -0.07,0.18 0,0.24 0.03,0.04 0.07,0.06 0.12,0.06 0.04,0 0.08,-0.02 0.12,-0.05 0.06,-0.07 0.07,-0.18 0,-0.24 -0.07,-0.07 -0.17,-0.07 -0.24,-0.01zm0.15 0.33c-0.01,0 -0.02,0 -0.03,0 -0.06,0 -0.11,-0.02 -0.15,-0.06 -0.08,-0.08 -0.08,-0.21 0,-0.29 0.09,-0.08 0.22,-0.08 0.29,0 0.08,0.08 0.08,0.21 0,0.29 -0.03,0.03 -0.07,0.05 -0.11,0.06z"/>
   <polygon class="fil13" points="13.25,4.39 13.23,4.37 13.43,4.17 13.45,4.2 "/>
   <path class="fil13" d="M13.17 4.45l0 0c-0.01,-0.01 -0.01,-0.03 0,-0.04l0.12 -0.12c0.01,-0.01 0.03,-0.01 0.04,0 0.02,0.01 0.02,0.03 0,0.05l-0.11 0.11c-0.02,0.01 -0.03,0.01 -0.05,0z"/>
   <path class="fil3" d="M6.5 8.37l-0.95 0c-0.02,0 -0.04,-0.02 -0.04,-0.04l0 -0.01c0,-0.02 0.02,-0.04 0.04,-0.04l0.95 0c0.02,0 0.03,0.02 0.03,0.04l0 0.01c0,0.02 -0.01,0.04 -0.03,0.04z"/>
   <path class="fil14" d="M6.01 8.67l-0.47 0c-0.01,0 -0.03,-0.02 -0.03,-0.03 0,-0.02 0.02,-0.03 0.03,-0.03l0.47 0c0.02,0 0.03,0.01 0.03,0.03 0,0.01 -0.01,0.03 -0.03,0.03z"/>
   <path class="fil14" d="M6.37 8.54l-0.83 0c-0.01,0 -0.03,-0.01 -0.03,-0.02l0 -0.01c0,-0.01 0.02,-0.03 0.03,-0.03l0.83 0c0.01,0 0.03,0.02 0.03,0.03l0 0.01c0,0.01 -0.02,0.02 -0.03,0.02z"/>
   <path class="fil14" d="M7.27 8.54l-0.77 0c-0.01,0 -0.02,-0.01 -0.02,-0.02l0 -0.01c0,-0.01 0.01,-0.03 0.02,-0.03l0.77 0c0.02,0 0.03,0.02 0.03,0.03l0 0.01c0,0.01 -0.01,0.02 -0.03,0.02z"/>
   <path class="fil14" d="M6.59 8.67l-0.46 0c-0.02,0 -0.03,-0.02 -0.03,-0.03 0,-0.02 0.01,-0.03 0.03,-0.03l0.46 0c0.02,0 0.03,0.01 0.03,0.03 0,0.01 -0.01,0.03 -0.03,0.03z"/>
   <path class="fil3" d="M7.65 8.37l-0.95 0c-0.02,0 -0.03,-0.02 -0.03,-0.04l0 -0.01c0,-0.02 0.01,-0.04 0.03,-0.04l0.95 0c0.02,0 0.03,0.02 0.03,0.04l0 0.01c0,0.02 -0.01,0.04 -0.03,0.04z"/>
   <path class="fil3" d="M6.5 9.02l-0.95 0c-0.02,0 -0.04,-0.02 -0.04,-0.04l0 -0.01c0,-0.02 0.02,-0.04 0.04,-0.04l0.95 0c0.02,0 0.03,0.02 0.03,0.04l0 0.01c0,0.02 -0.01,0.04 -0.03,0.04z"/>
   <path class="fil14" d="M6.01 9.32l-0.47 0c-0.01,0 -0.03,-0.02 -0.03,-0.03 0,-0.02 0.02,-0.03 0.03,-0.03l0.47 0c0.02,0 0.03,0.01 0.03,0.03 0,0.01 -0.01,0.03 -0.03,0.03z"/>
   <path class="fil14" d="M6.37 9.19l-0.83 0c-0.01,0 -0.03,-0.01 -0.03,-0.02l0 -0.01c0,-0.01 0.02,-0.03 0.03,-0.03l0.83 0c0.01,0 0.03,0.02 0.03,0.03l0 0.01c0,0.01 -0.02,0.02 -0.03,0.02z"/>
   <path class="fil14" d="M7.27 9.19l-0.77 0c-0.01,0 -0.02,-0.01 -0.02,-0.02l0 -0.01c0,-0.01 0.01,-0.03 0.02,-0.03l0.77 0c0.02,0 0.03,0.02 0.03,0.03l0 0.01c0,0.01 -0.01,0.02 -0.03,0.02z"/>
   <path class="fil14" d="M6.59 9.32l-0.46 0c-0.02,0 -0.03,-0.02 -0.03,-0.03 0,-0.02 0.01,-0.03 0.03,-0.03l0.46 0c0.02,0 0.03,0.01 0.03,0.03 0,0.01 -0.01,0.03 -0.03,0.03z"/>
   <path class="fil3" d="M7.65 9.02l-0.95 0c-0.02,0 -0.03,-0.02 -0.03,-0.04l0 -0.01c0,-0.02 0.01,-0.04 0.03,-0.04l0.95 0c0.02,0 0.03,0.02 0.03,0.04l0 0.01c0,0.02 -0.01,0.04 -0.03,0.04z"/>
   <polygon class="fil8" points="11.42,5.07 10.88,5.19 10.61,5.68 10.4,4.57 "/>
   <polygon class="fil8" points="11.19,5.54 11.11,5.6 10.77,5.15 10.85,5.09 "/>
   <path class="fil17" d="M11.06 7.36l-1.33 0c-0.05,0 -0.09,-0.04 -0.09,-0.1l0 -1.33c0,-0.05 0.04,-0.1 0.09,-0.1l1.33 0c0.06,0 0.1,0.05 0.1,0.1l0 1.33c0,0.06 -0.04,0.1 -0.1,0.1z"/>
   <path class="fil14" d="M9.83 7.04l0.3 -0.53c0.03,-0.07 0.12,-0.07 0.16,-0.01l0.17 0.23c0.04,0.05 0.11,0.05 0.15,0.01 0.04,-0.05 0.12,-0.04 0.16,0.01l0.18 0.28c0.04,0.07 0,0.15 -0.08,0.15l-0.95 0c-0.08,0 -0.13,-0.08 -0.09,-0.14z"/>
   <path class="fil14" d="M10.41 6.26c0,-0.07 0.06,-0.12 0.12,-0.12 0.07,0 0.12,0.05 0.12,0.12 0,0.06 -0.05,0.11 -0.12,0.11 -0.06,0 -0.12,-0.05 -0.12,-0.11z"/>
   <path class="fil17" d="M13.01 7.4l-1.31 0.18c-0.06,0.01 -0.11,-0.03 -0.11,-0.08l-0.18 -1.32c-0.01,-0.05 0.03,-0.1 0.08,-0.11l1.32 -0.18c0.05,-0.01 0.1,0.03 0.11,0.08l0.18 1.32c0,0.05 -0.03,0.1 -0.09,0.11z"/>
   <path class="fil14" d="M11.75 7.25l0.22 -0.57c0.03,-0.06 0.11,-0.08 0.16,-0.03l0.2 0.21c0.04,0.04 0.12,0.03 0.15,-0.02 0.04,-0.05 0.11,-0.05 0.16,0l0.22 0.25c0.05,0.06 0.01,0.15 -0.06,0.16l-0.95 0.13c-0.07,0.01 -0.13,-0.06 -0.1,-0.13z"/>
   <path class="fil14" d="M12.22 6.39c-0.01,-0.06 0.04,-0.12 0.1,-0.13 0.07,0 0.12,0.04 0.13,0.1 0.01,0.07 -0.03,0.13 -0.1,0.13 -0.06,0.01 -0.12,-0.03 -0.13,-0.1z"/>
   <polygon class="fil3" points="8.37,12.77 9.14,12.77 9.14,12.11 8.37,12.11 "/>
   <polygon class="fil2" points="8.34,12.13 9.17,12.13 9.17,12.08 8.34,12.08 "/>
   <polygon class="fil18" points="8.37,12.5 9.14,12.5 9.14,12.29 8.37,12.29 "/>
   <path class="fil3" d="M10.07 12.77l-0.72 0c-0.03,0 -0.05,-0.02 -0.05,-0.05l0 -0.08c0,-0.03 0.03,-0.05 0.05,-0.05l0.73 0.08c0.02,0 0.04,0.03 0.04,0.05 0,0.03 -0.02,0.05 -0.05,0.05z"/>
   <path class="fil19" d="M20.22 12.83l-20.2 0c-0.01,0 -0.02,-0.02 -0.02,-0.03l0 -0.01c0,-0.01 0.01,-0.03 0.02,-0.03l20.2 0.01c0.01,0 0.02,0.01 0.02,0.03l0 0.01c0,0.01 -0.01,0.02 -0.02,0.02z"/>
   <path class="fil14" d="M6.08 5.58l-0.09 0c-0.01,0 -0.01,-0.01 -0.01,-0.02 0,0 0,-0.01 0.01,-0.01l0.09 0c0,0 0.01,0.01 0.01,0.01 0,0.01 -0.01,0.02 -0.01,0.02zm0.16 0l-0.08 0c-0.01,0 -0.02,-0.01 -0.02,-0.02 0,0 0.01,-0.01 0.02,-0.01l0.08 0c0.01,0 0.01,0.01 0.01,0.01 0,0.01 0,0.02 -0.01,0.02zm0.17 0l-0.09 0c0,0 -0.01,-0.01 -0.01,-0.02 0,0 0.01,-0.01 0.01,-0.01l0.09 0c0,0 0.01,0.01 0.01,0.01 0,0.01 -0.01,0.02 -0.01,0.02zm0.16 0l-0.08 0c-0.01,0 -0.01,-0.01 -0.01,-0.02 0,0 0,-0.01 0.01,-0.01l0.08 0c0.01,0 0.02,0.01 0.02,0.01 0,0.01 -0.01,0.02 -0.02,0.02zm0.17 0l-0.08 0c-0.01,0 -0.02,-0.01 -0.02,-0.02 0,0 0.01,-0.01 0.02,-0.01l0.08 0c0.01,0 0.01,0.01 0.01,0.01 0,0.01 0,0.02 -0.01,0.02zm0.17 0l-0.09 0c-0.01,0 -0.01,-0.01 -0.01,-0.02 0,0 0,-0.01 0.01,-0.01l0.09 0c0,0 0.01,0.01 0.01,0.01 0,0.01 -0.01,0.02 -0.01,0.02zm0.16 0l-0.08 0c-0.01,0 -0.02,-0.01 -0.02,-0.02 0,0 0.01,-0.01 0.02,-0.01l0.08 0c0.01,0 0.02,0.01 0.02,0.01 0,0.01 -0.01,0.02 -0.02,0.02zm0.17 0l-0.09 0c0,0 -0.01,-0.01 -0.01,-0.02 0,0 0.01,-0.01 0.01,-0.01l0.09 0c0.01,0 0.01,0.01 0.01,0.01 0,0.01 0,0.02 -0.01,0.02zm0.16 0l-0.08 0c-0.01,0 -0.01,-0.01 -0.01,-0.02 0,0 0,-0.01 0.01,-0.01l0.08 0c0.01,0 0.02,0.01 0.02,0.01 0,0.01 -0.01,0.02 -0.02,0.02zm0.17 0l-0.08 0c-0.01,0 -0.02,-0.01 -0.02,-0.02 0,0 0.01,-0.01 0.02,-0.01l0.08 0c0.01,0 0.01,0.01 0.01,0.01 0,0.01 0,0.02 -0.01,0.02zm0.17 0l-0.09 0c-0.01,0 -0.01,-0.01 -0.01,-0.02 0,0 0,-0.01 0.01,-0.01l0.09 0c0,0 0.01,0.01 0.01,0.01 0,0.01 -0.01,0.02 -0.01,0.02zm0.16 0l-0.08 0c-0.01,0 -0.02,-0.01 -0.02,-0.02 0,0 0.01,-0.01 0.02,-0.01l0.08 0c0.01,0 0.02,0.01 0.02,0.01 0,0.01 -0.01,0.02 -0.02,0.02zm0.17 0l-0.09 0c0,0 -0.01,-0.01 -0.01,-0.02 0,0 0.01,-0.01 0.01,-0.01l0.09 0c0.01,0 0.01,0.01 0.01,0.01 0,0.01 0,0.02 -0.01,0.02zm0.16 0l-0.08 0c-0.01,0 -0.01,-0.01 -0.01,-0.02 0,0 0,-0.01 0.01,-0.01l0.08 0c0.01,0 0.02,0.01 0.02,0.01 0,0.01 -0.01,0.02 -0.02,0.02zm0.17 0l-0.08 0c-0.01,0 -0.02,-0.01 -0.02,-0.02 0,0 0.01,-0.01 0.02,-0.01l0.08 0c0.01,0 0.01,0.01 0.01,0.01 0,0.01 0,0.02 -0.01,0.02zm0.17 0l-0.09 0c0,0 -0.01,-0.01 -0.01,-0.02 0,0 0.01,-0.01 0.01,-0.01l0.09 0c0,0 0.01,0.01 0.01,0.01 0,0.01 -0.01,0.02 -0.01,0.02zm0.16 0l-0.08 0c-0.01,0 -0.01,-0.01 -0.01,-0.02 0,0 0,-0.01 0.01,-0.01l0.08 0c0.01,0 0.02,0.01 0.02,0.01 0,0.01 -0.01,0.02 -0.02,0.02zm-2.9 0.02c0,0 -0.01,0 -0.01,-0.01 0,0 0,-0.01 0,-0.01 0.03,-0.02 0.06,-0.03 0.09,-0.03l0 0c0.01,0 0.01,0.01 0.01,0.01 0,0.01 0,0.02 -0.01,0.02 -0.03,0 -0.05,0 -0.07,0.02 0,0 -0.01,0 -0.01,0zm3.06 0.01c0,0 0,0 -0.01,-0.01 -0.02,-0.01 -0.04,-0.02 -0.07,-0.02 0,0 -0.01,-0.01 -0.01,-0.02 0,0 0.01,-0.01 0.02,-0.01 0.03,0 0.06,0.01 0.08,0.03 0.01,0.01 0.01,0.01 0,0.02 0,0 0,0.01 -0.01,0.01zm-3.12 0.14c-0.01,0 -0.01,-0.01 -0.01,-0.02l0 -0.03c0,-0.02 0,-0.04 0.01,-0.05 0,-0.01 0.01,-0.01 0.01,-0.01 0.01,0 0.02,0.01 0.01,0.02 0,0.01 -0.01,0.03 -0.01,0.04l0 0.03c0,0.01 0,0.02 -0.01,0.02zm3.18 0c-0.01,0 -0.02,0 -0.02,-0.01l0 -0.04c0,-0.01 0,-0.02 0,-0.04 -0.01,0 0,-0.01 0,-0.01 0.01,-0.01 0.02,0 0.02,0 0.01,0.02 0.01,0.04 0.01,0.05l0 0.04c0,0.01 -0.01,0.01 -0.01,0.01zm-3.18 0.16c-0.01,0 -0.01,0 -0.01,-0.01l0 -0.08c0,-0.01 0,-0.02 0.01,-0.02 0.01,0 0.01,0.01 0.01,0.02l0 0.08c0,0.01 0,0.01 -0.01,0.01zm3.18 0.01c-0.01,0 -0.02,-0.01 -0.02,-0.01l0 -0.09c0,0 0.01,-0.01 0.02,-0.01 0,0 0.01,0.01 0.01,0.01l0 0.09c0,0 -0.01,0.01 -0.01,0.01zm-3.18 0.16c-0.01,0 -0.01,-0.01 -0.01,-0.02l0 -0.08c0,-0.01 0,-0.01 0.01,-0.01 0.01,0 0.01,0 0.01,0.01l0 0.08c0,0.01 0,0.02 -0.01,0.02zm3.18 0.01c-0.01,0 -0.02,-0.01 -0.02,-0.02l0 -0.08c0,-0.01 0.01,-0.01 0.02,-0.01 0,0 0.01,0 0.01,0.01l0 0.08c0,0.01 -0.01,0.02 -0.01,0.02zm-3.18 0.15c-0.01,0 -0.01,0 -0.01,-0.01l0 -0.08c0,-0.01 0,-0.02 0.01,-0.02 0.01,0 0.01,0.01 0.01,0.02l0 0.08c0,0.01 0,0.01 -0.01,0.01zm3.18 0.01c-0.01,0 -0.02,0 -0.02,-0.01l0 -0.08c0,-0.01 0.01,-0.02 0.02,-0.02 0,0 0.01,0.01 0.01,0.02l0 0.08c0,0.01 -0.01,0.01 -0.01,0.01zm-3.18 0.16c-0.01,0 -0.01,-0.01 -0.01,-0.01l0 -0.09c0,0 0,-0.01 0.01,-0.01 0.01,0 0.01,0.01 0.01,0.01l0 0.09c0,0 0,0.01 -0.01,0.01zm3.18 0.01c-0.01,0 -0.02,-0.01 -0.02,-0.01l0 -0.09c0,-0.01 0.01,-0.01 0.02,-0.01 0,0 0.01,0 0.01,0.01l0 0.09c0,0 -0.01,0.01 -0.01,0.01zm-3.18 0.16c-0.01,0 -0.01,-0.01 -0.01,-0.02l0 -0.08c0,-0.01 0,-0.01 0.01,-0.01 0.01,0 0.01,0 0.01,0.01l0 0.08c0,0.01 0,0.02 -0.01,0.02zm3.18 0c-0.01,0 -0.02,0 -0.02,-0.01l0 -0.08c0,-0.01 0.01,-0.02 0.02,-0.02 0,0 0.01,0.01 0.01,0.02l0 0.08c0,0.01 -0.01,0.01 -0.01,0.01zm-3.18 0.16c-0.01,0 -0.01,0 -0.01,-0.01l0 -0.08c0,-0.01 0,-0.02 0.01,-0.02 0.01,0 0.01,0.01 0.01,0.02l0 0.08c0,0.01 0,0.01 -0.01,0.01zm3.18 0.01c-0.01,0 -0.02,-0.01 -0.02,-0.01l0 -0.09c0,0 0.01,-0.01 0.02,-0.01 0,0 0.01,0.01 0.01,0.01l0 0.09c0,0 -0.01,0.01 -0.01,0.01zm-3.18 0.16c-0.01,0 -0.01,-0.01 -0.01,-0.02l0 -0.08c0,-0.01 0,-0.01 0.01,-0.01 0.01,0 0.01,0 0.01,0.01l0 0.08c0,0.01 0,0.02 -0.01,0.02zm3.18 0.01c-0.01,0 -0.02,-0.01 -0.02,-0.02l0 -0.08c0,-0.01 0.01,-0.01 0.02,-0.01 0,0 0.01,0 0.01,0.01l0 0.08c0,0.01 -0.01,0.02 -0.01,0.02zm-3.18 0.15c-0.01,0 -0.01,0 -0.01,-0.01l0 -0.08c0,-0.01 0,-0.02 0.01,-0.02 0.01,0 0.01,0.01 0.01,0.02l0 0.08c0,0.01 0,0.01 -0.01,0.01zm3.18 0.01c-0.01,0 -0.02,0 -0.02,-0.01l0 -0.08c0,-0.01 0.01,-0.02 0.02,-0.02 0,0 0.01,0.01 0.01,0.02l0 0.08c0,0.01 -0.01,0.01 -0.01,0.01zm-3.18 0.16c-0.01,0 -0.01,-0.01 -0.01,-0.01l0 -0.09c0,0 0,-0.01 0.01,-0.01 0.01,0 0.01,0.01 0.01,0.01l0 0.09c0,0 0,0.01 -0.01,0.01zm3.18 0.01c-0.01,0 -0.02,-0.01 -0.02,-0.01l0 -0.09c0,-0.01 0.01,-0.01 0.02,-0.01 0,0 0.01,0 0.01,0.01l0 0.09c0,0 -0.01,0.01 -0.01,0.01zm-3.13 0.14c0,0 0,0 0,0 -0.03,-0.02 -0.05,-0.05 -0.06,-0.08 0,0 0,-0.01 0.01,-0.01 0.01,-0.01 0.02,0 0.02,0 0.01,0.03 0.02,0.05 0.04,0.06 0.01,0.01 0.01,0.02 0,0.02 0,0.01 0,0.01 -0.01,0.01zm3.06 0c0,0 0,0 -0.01,0 0,-0.01 0,-0.02 0.01,-0.02 0.02,-0.01 0.03,-0.03 0.04,-0.06 0.01,-0.01 0.01,-0.01 0.02,-0.01 0.01,0.01 0.01,0.02 0.01,0.02 -0.01,0.03 -0.03,0.05 -0.06,0.07 0,0 0,0 -0.01,0zm-2.9 0.03l-0.07 0c0,0 -0.01,0 -0.01,0 -0.01,0 -0.01,-0.01 -0.01,-0.02 0,0 0,-0.01 0.01,-0.01 0,0 0.01,0 0.01,0l0.07 0c0.01,0 0.02,0.01 0.02,0.01 0,0.01 -0.01,0.02 -0.02,0.02zm0.17 0l-0.08 0c-0.01,0 -0.02,-0.01 -0.02,-0.02 0,0 0.01,-0.01 0.02,-0.01l0.08 0c0.01,0 0.01,0.01 0.01,0.01 0,0.01 0,0.02 -0.01,0.02zm0.17 0l-0.09 0c-0.01,0 -0.01,-0.01 -0.01,-0.02 0,0 0,-0.01 0.01,-0.01l0.09 0c0,0 0.01,0.01 0.01,0.01 0,0.01 -0.01,0.02 -0.01,0.02zm0.16 0l-0.08 0c-0.01,0 -0.02,-0.01 -0.02,-0.02 0,0 0.01,-0.01 0.02,-0.01l0.08 0c0.01,0 0.02,0.01 0.02,0.01 0,0.01 -0.01,0.02 -0.02,0.02zm0.17 0l-0.09 0c0,0 -0.01,-0.01 -0.01,-0.02 0,0 0.01,-0.01 0.01,-0.01l0.09 0c0.01,0 0.01,0.01 0.01,0.01 0,0.01 0,0.02 -0.01,0.02zm0.16 0l-0.08 0c-0.01,0 -0.01,-0.01 -0.01,-0.02 0,0 0,-0.01 0.01,-0.01l0.08 0c0.01,0 0.02,0.01 0.02,0.01 0,0.01 -0.01,0.02 -0.02,0.02zm0.17 0l-0.08 0c-0.01,0 -0.02,-0.01 -0.02,-0.02 0,0 0.01,-0.01 0.02,-0.01l0.08 0c0.01,0 0.01,0.01 0.01,0.01 0,0.01 0,0.02 -0.01,0.02zm0.17 0l-0.09 0c0,0 -0.01,-0.01 -0.01,-0.02 0,0 0.01,-0.01 0.01,-0.01l0.09 0c0,0 0.01,0.01 0.01,0.01 0,0.01 -0.01,0.02 -0.01,0.02zm0.16 0l-0.08 0c-0.01,0 -0.01,-0.01 -0.01,-0.02 0,0 0,-0.01 0.01,-0.01l0.08 0c0.01,0 0.02,0.01 0.02,0.01 0,0.01 -0.01,0.02 -0.02,0.02zm0.17 0l-0.09 0c0,0 -0.01,-0.01 -0.01,-0.02 0,0 0.01,-0.01 0.01,-0.01l0.09 0c0.01,0 0.01,0.01 0.01,0.01 0,0.01 0,0.02 -0.01,0.02zm0.16 0l-0.08 0c-0.01,0 -0.01,-0.01 -0.01,-0.02 0,0 0,-0.01 0.01,-0.01l0.08 0c0.01,0 0.02,0.01 0.02,0.01 0,0.01 -0.01,0.02 -0.02,0.02zm0.17 0l-0.08 0c-0.01,0 -0.02,-0.01 -0.02,-0.02 0,0 0.01,-0.01 0.02,-0.01l0.08 0c0.01,0 0.01,0.01 0.01,0.01 0,0.01 0,0.02 -0.01,0.02zm0.17 0l-0.09 0c0,0 -0.01,-0.01 -0.01,-0.02 0,0 0.01,-0.01 0.01,-0.01l0.09 0c0,0 0.01,0.01 0.01,0.01 0,0.01 -0.01,0.02 -0.01,0.02zm0.16 0l-0.08 0c-0.01,0 -0.01,-0.01 -0.01,-0.02 0,0 0,-0.01 0.01,-0.01l0.08 0c0.01,0 0.02,0.01 0.02,0.01 0,0.01 -0.01,0.02 -0.02,0.02zm0.17 0l-0.08 0c-0.01,0 -0.02,-0.01 -0.02,-0.02 0,0 0.01,-0.01 0.02,-0.01l0.08 0c0.01,0 0.01,0.01 0.01,0.01 0,0.01 0,0.02 -0.01,0.02zm0.16 0l-0.08 0c-0.01,0 -0.01,-0.01 -0.01,-0.02 0,0 0,-0.01 0.01,-0.01l0.08 0c0.01,0 0.02,0.01 0.02,0.01 0,0.01 -0.01,0.02 -0.02,0.02zm0.17 0l-0.08 0c-0.01,0 -0.02,-0.01 -0.02,-0.02 0,0 0.01,-0.01 0.02,-0.01l0.08 0c0.01,0 0.01,0.01 0.01,0.01 0,0.01 0,0.02 -0.01,0.02zm0.17 0l-0.09 0c0,0 -0.01,-0.01 -0.01,-0.02 0,0 0.01,-0.01 0.01,-0.01l0.09 0c0,0 0.01,0.01 0.01,0.01 0,0.01 -0.01,0.02 -0.01,0.02z"/>
   <path class="fil14" d="M12.2 9.26l-0.07 0c-0.01,0 -0.01,-0.01 -0.01,-0.01 0,-0.01 0,-0.01 0.01,-0.01l0.07 0c0.01,0 0.02,0 0.02,0.01 0,0 -0.01,0.01 -0.02,0.01zm0.15 0l-0.07 0c-0.01,0 -0.01,-0.01 -0.01,-0.01 0,-0.01 0,-0.01 0.01,-0.01l0.07 0c0.01,0 0.01,0 0.01,0.01 0,0 0,0.01 -0.01,0.01zm0.15 0l-0.08 0c0,0 -0.01,-0.01 -0.01,-0.01 0,-0.01 0.01,-0.01 0.01,-0.01l0.08 0c0.01,0 0.01,0 0.01,0.01 0,0 0,0.01 -0.01,0.01zm0.15 0l-0.08 0c0,0 -0.01,-0.01 -0.01,-0.01 0,-0.01 0.01,-0.01 0.01,-0.01l0.08 0c0,0 0.01,0 0.01,0.01 0,0 -0.01,0.01 -0.01,0.01zm0.14 0l-0.07 0c-0.01,0 -0.01,-0.01 -0.01,-0.01 0,-0.01 0,-0.01 0.01,-0.01l0.07 0c0.01,0 0.01,0 0.01,0.01 0,0 0,0.01 -0.01,0.01zm0.15 0l-0.07 0c-0.01,0 -0.02,-0.01 -0.02,-0.01 0,-0.01 0.01,-0.01 0.02,-0.01l0.07 0c0.01,0 0.01,0 0.01,0.01 0,0 0,0.01 -0.01,0.01zm0.15 0l-0.08 0c0,0 -0.01,-0.01 -0.01,-0.01 0,-0.01 0.01,-0.01 0.01,-0.01l0.08 0c0,0 0.01,0 0.01,0.01 0,0 -0.01,0.01 -0.01,0.01zm0.14 0l-0.07 0c-0.01,0 -0.01,-0.01 -0.01,-0.01 0,-0.01 0,-0.01 0.01,-0.01l0.07 0c0.01,0 0.02,0 0.02,0.01 0,0 -0.01,0.01 -0.02,0.01zm0.15 0l-0.07 0c-0.01,0 -0.01,-0.01 -0.01,-0.01 0,-0.01 0,-0.01 0.01,-0.01l0.07 0c0.01,0 0.01,0 0.01,0.01 0,0 0,0.01 -0.01,0.01zm0.15 0l0 0 0 0 -0.08 0c0,0 -0.01,-0.01 -0.01,-0.01 0,-0.01 0.01,-0.01 0.01,-0.01l0.08 0c0,0 0,0 0,0 0.01,0 0.01,0 0.01,0.01 0,0.01 -0.01,0.01 -0.01,0.01zm-1.45 0.12c0,0 -0.01,-0.01 -0.01,-0.01l0 -0.07c0,0 0,-0.01 0,-0.01 0,0 0.01,-0.01 0.01,-0.01 0.01,0 0.02,0.01 0.01,0.01l0 0.08c0,0 0,0.01 -0.01,0.01zm1.49 0c0,0 -0.01,0 -0.01,-0.01l0 -0.07c0,-0.01 0.01,-0.02 0.01,-0.02 0.01,0 0.02,0.01 0.02,0.02l0 0.07c0,0.01 -0.01,0.01 -0.02,0.01zm-1.49 0.15c0,0 -0.01,-0.01 -0.01,-0.01l0 -0.08c0,-0.01 0.01,-0.01 0.01,-0.01 0.01,0 0.01,0 0.01,0.01l0 0.08c0,0 0,0.01 -0.01,0.01zm1.49 0c0,0 -0.01,-0.01 -0.01,-0.01l0 -0.08c0,0 0.01,-0.01 0.01,-0.01 0.01,0 0.02,0.01 0.02,0.01l0 0.08c0,0 -0.01,0.01 -0.02,0.01zm-1.49 0.14c0,0 -0.01,0 -0.01,-0.01l0 -0.07c0,-0.01 0.01,-0.01 0.01,-0.01 0.01,0 0.01,0 0.01,0.01l0 0.07c0,0.01 0,0.01 -0.01,0.01zm1.49 0.01l0 0c0,0 -0.01,-0.01 -0.01,-0.02l0 -0.07c0,-0.01 0.01,-0.01 0.01,-0.01 0.01,0 0.02,0 0.02,0.01l0 0.07c0,0.01 -0.01,0.02 -0.02,0.02zm-1.37 0.04l-0.07 0c0,0 0,0 0,0 -0.01,0 -0.01,0 -0.01,-0.01 0,-0.01 0,-0.01 0.01,-0.01l0 0 0.07 0c0.01,0 0.01,0 0.01,0.01 0,0.01 0,0.01 -0.01,0.01zm0.15 0l-0.07 0c-0.01,0 -0.02,0 -0.02,-0.01 0,-0.01 0.01,-0.01 0.02,-0.01l0.07 0c0.01,0 0.01,0 0.01,0.01 0,0.01 0,0.01 -0.01,0.01zm0.15 0l-0.08 0c0,0 -0.01,0 -0.01,-0.01 0,-0.01 0.01,-0.01 0.01,-0.01l0.08 0c0,0 0.01,0 0.01,0.01 0,0.01 -0.01,0.01 -0.01,0.01zm0.14 0l-0.07 0c-0.01,0 -0.01,0 -0.01,-0.01 0,-0.01 0,-0.01 0.01,-0.01l0.07 0c0.01,0 0.02,0 0.02,0.01 0,0.01 -0.01,0.01 -0.02,0.01zm0.15 0l-0.07 0c-0.01,0 -0.02,0 -0.02,-0.01 0,-0.01 0.01,-0.01 0.02,-0.01l0.07 0c0.01,0 0.01,0 0.01,0.01 0,0.01 0,0.01 -0.01,0.01zm0.15 0l-0.08 0c0,0 -0.01,0 -0.01,-0.01 0,-0.01 0.01,-0.01 0.01,-0.01l0.08 0c0,0 0.01,0 0.01,0.01 0,0.01 -0.01,0.01 -0.01,0.01zm0.14 0l-0.07 0c-0.01,0 -0.01,0 -0.01,-0.01 0,-0.01 0,-0.01 0.01,-0.01l0.07 0c0.01,0 0.02,0 0.02,0.01 0,0.01 -0.01,0.01 -0.02,0.01zm0.15 0l-0.07 0c-0.01,0 -0.01,0 -0.01,-0.01 0,-0.01 0,-0.01 0.01,-0.01l0.07 0c0.01,0 0.01,0 0.01,0.01 0,0.01 0,0.01 -0.01,0.01zm0.15 0l-0.07 0c-0.01,0 -0.02,0 -0.02,-0.01 0,-0.01 0.01,-0.01 0.02,-0.01l0.07 0c0.01,0 0.01,0 0.01,0.01 0,0.01 0,0.01 -0.01,0.01zm0.15 0l-0.08 0c0,0 -0.01,0 -0.01,-0.01 0,-0.01 0.01,-0.01 0.01,-0.01l0.08 0c0,0 0.01,0 0.01,0.01 0,0.01 -0.01,0.01 -0.01,0.01z"/>
   <path class="fil14" d="M7.25 4.24l-0.08 0c-0.01,0 -0.02,-0.01 -0.02,-0.02 0,-0.01 0.01,-0.01 0.02,-0.01l0.08 0c0.01,0 0.01,0 0.01,0.01 0,0.01 0,0.02 -0.01,0.02zm0.16 0l-0.08 0c-0.01,0 -0.01,-0.01 -0.01,-0.02 0,-0.01 0,-0.01 0.01,-0.01l0.08 0c0.01,0 0.02,0 0.02,0.01 0,0.01 -0.01,0.02 -0.02,0.02zm0.16 0l-0.08 0c0,0 -0.01,-0.01 -0.01,-0.02 0,-0.01 0.01,-0.01 0.01,-0.01l0.08 0c0.01,0 0.02,0 0.02,0.01 0,0.01 -0.01,0.02 -0.02,0.02zm0.17 0l-0.08 0c-0.01,0 -0.02,-0.01 -0.02,-0.02 0,-0.01 0.01,-0.01 0.02,-0.01l0.08 0c0,0 0.01,0 0.01,0.01 0,0.01 -0.01,0.02 -0.01,0.02zm0.16 0l-0.08 0c-0.01,0 -0.01,-0.01 -0.01,-0.02 0,-0.01 0,-0.01 0.01,-0.01l0.08 0c0.01,0 0.01,0 0.01,0.01 0,0.01 0,0.02 -0.01,0.02zm0.16 0l-0.08 0c-0.01,0 -0.01,-0.01 -0.01,-0.02 0,-0.01 0,-0.01 0.01,-0.01l0.08 0c0.01,0 0.02,0 0.02,0.01 0,0.01 -0.01,0.02 -0.02,0.02zm0.17 0l-0.09 0c0,0 -0.01,-0.01 -0.01,-0.02 0,-0.01 0.01,-0.01 0.01,-0.01l0.09 0c0,0 0.01,0 0.01,0.01 0,0.01 -0.01,0.02 -0.01,0.02zm0.11 0.07c-0.01,0 -0.01,0 -0.01,-0.01l0 -0.01c0,-0.02 -0.01,-0.04 -0.03,-0.05 -0.01,0 -0.01,-0.01 -0.01,-0.02 0.01,0 0.02,0 0.02,0 0.03,0.01 0.04,0.04 0.04,0.07l0 0.01c0,0.01 0,0.01 -0.01,0.01zm-1.24 0.05c-0.01,0 -0.01,-0.01 -0.01,-0.01l0 -0.06c0,-0.01 0,-0.02 0,-0.03 0,-0.01 0.01,-0.01 0.02,-0.01 0.01,0.01 0.01,0.01 0.01,0.02 0,0.01 -0.01,0.01 -0.01,0.02l0 0.06c0,0 0,0.01 -0.01,0.01zm1.24 0.12c-0.01,0 -0.01,-0.01 -0.01,-0.02l0 -0.08c0,-0.01 0,-0.01 0.01,-0.01 0.01,0 0.01,0 0.01,0.01l0 0.08c0,0.01 0,0.02 -0.01,0.02zm-1.24 0.04c-0.01,0 -0.01,0 -0.01,-0.01l0 -0.08c0,-0.01 0,-0.02 0.01,-0.02 0.01,0 0.01,0.01 0.01,0.02l0 0.08c0,0.01 0,0.01 -0.01,0.01zm1.24 0.12c-0.01,0 -0.01,-0.01 -0.01,-0.01l0 -0.09c0,0 0,-0.01 0.01,-0.01 0.01,0 0.01,0.01 0.01,0.01l0 0.09c0,0 0,0.01 -0.01,0.01zm-1.24 0.05c-0.01,0 -0.01,-0.01 -0.01,-0.02l0 -0.08c0,-0.01 0,-0.01 0.01,-0.01 0.01,0 0.01,0 0.01,0.01l0 0.08c0,0.01 0,0.02 -0.01,0.02zm1.24 0.11c-0.01,0 -0.01,0 -0.01,-0.01l0 -0.08c0,-0.01 0,-0.02 0.01,-0.02 0.01,0 0.01,0.01 0.01,0.02l0 0.08c0,0.01 0,0.01 -0.01,0.01zm-1.24 0.05c-0.01,0 -0.01,-0.01 -0.01,-0.01l0 -0.09c0,0 0,-0.01 0.01,-0.01 0.01,0 0.01,0.01 0.01,0.01l0 0.09c0,0 0,0.01 -0.01,0.01zm1.24 0.11c-0.01,0 -0.01,0 -0.01,-0.01l0 -0.08c0,-0.01 0,-0.01 0.01,-0.01 0.01,0 0.01,0 0.01,0.01l0 0.08c0,0.01 0,0.01 -0.01,0.01zm-1.24 0.05c-0.01,0 -0.01,0 -0.01,-0.01l0 -0.08c0,-0.01 0,-0.02 0.01,-0.02 0.01,0 0.01,0.01 0.01,0.02l0 0.08c0,0.01 0,0.01 -0.01,0.01zm1.24 0.12c-0.01,0 -0.01,-0.01 -0.01,-0.02l0 -0.08c0,-0.01 0,-0.01 0.01,-0.01 0.01,0 0.01,0 0.01,0.01l0 0.08c0,0.01 0,0.02 -0.01,0.02zm-1.24 0.04c-0.01,0 -0.01,0 -0.01,-0.01l0 -0.08c0,-0.01 0,-0.01 0.01,-0.01 0.01,0 0.01,0 0.01,0.01l0 0.08c0,0.01 0,0.01 -0.01,0.01zm1.24 0.12c-0.01,0 -0.01,0 -0.01,0 -0.01,0 -0.01,-0.01 -0.01,-0.02 0.01,0 0.01,-0.01 0.01,-0.02l0 -0.05c0,-0.01 0,-0.02 0.01,-0.02 0.01,0 0.01,0.01 0.01,0.02l0 0.05c0,0.01 0,0.02 0,0.03 0,0.01 -0.01,0.01 -0.01,0.01zm-1.21 0.03c0,0 0,0 0,0 -0.03,-0.01 -0.04,-0.04 -0.04,-0.07l0 -0.01c0,-0.01 0,-0.01 0.01,-0.01 0.01,0 0.01,0 0.01,0.01l0 0.01c0,0.02 0.01,0.04 0.03,0.05 0.01,0 0.01,0.01 0.01,0.02 -0.01,0 -0.01,0 -0.02,0zm0.17 0.01l-0.09 0c0,0 -0.01,0 -0.01,-0.01 0,-0.01 0.01,-0.01 0.01,-0.01l0.09 0c0,0 0.01,0 0.01,0.01 0,0.01 -0.01,0.01 -0.01,0.01zm0.16 0l-0.08 0c-0.01,0 -0.02,0 -0.02,-0.01 0,-0.01 0.01,-0.01 0.02,-0.01l0.08 0c0.01,0 0.01,0 0.01,0.01 0,0.01 0,0.01 -0.01,0.01zm0.16 0l-0.08 0c-0.01,0 -0.01,0 -0.01,-0.01 0,-0.01 0,-0.01 0.01,-0.01l0.08 0c0.01,0 0.02,0 0.02,0.01 0,0.01 -0.01,0.01 -0.02,0.01zm0.16 0l-0.08 0c0,0 -0.01,0 -0.01,-0.01 0,-0.01 0.01,-0.01 0.01,-0.01l0.08 0c0.01,0 0.02,0 0.02,0.01 0,0.01 -0.01,0.01 -0.02,0.01zm0.17 0l-0.08 0c-0.01,0 -0.02,0 -0.02,-0.01 0,-0.01 0.01,-0.01 0.02,-0.01l0.08 0c0,0 0.01,0 0.01,0.01 0,0.01 -0.01,0.01 -0.01,0.01zm0.16 0l-0.08 0c-0.01,0 -0.02,0 -0.02,-0.01 0,-0.01 0.01,-0.01 0.02,-0.01l0.08 0c0.01,0 0.01,0 0.01,0.01 0,0.01 0,0.01 -0.01,0.01zm0.16 0l-0.08 0c-0.01,0 -0.01,0 -0.01,-0.01 0,-0.01 0,-0.01 0.01,-0.01l0.08 0c0.01,0 0.02,0 0.02,0.01 0,0.01 -0.01,0.01 -0.02,0.01z"/>
   <path class="fil14" d="M12.2 9.94l-0.07 0c-0.01,0 -0.01,-0.01 -0.01,-0.01 0,-0.01 0,-0.02 0.01,-0.02l0.07 0c0.01,0 0.02,0.01 0.02,0.02 0,0 -0.01,0.01 -0.02,0.01zm0.15 0l-0.07 0c-0.01,0 -0.01,-0.01 -0.01,-0.01 0,-0.01 0,-0.02 0.01,-0.02l0.07 0c0.01,0 0.01,0.01 0.01,0.02 0,0 0,0.01 -0.01,0.01zm0.15 0l-0.08 0c0,0 -0.01,-0.01 -0.01,-0.01 0,-0.01 0.01,-0.02 0.01,-0.02l0.08 0c0.01,0 0.01,0.01 0.01,0.02 0,0 0,0.01 -0.01,0.01zm0.15 0l-0.08 0c0,0 -0.01,-0.01 -0.01,-0.01 0,-0.01 0.01,-0.02 0.01,-0.02l0.08 0c0,0 0.01,0.01 0.01,0.02 0,0 -0.01,0.01 -0.01,0.01zm0.14 0l-0.07 0c-0.01,0 -0.01,-0.01 -0.01,-0.01 0,-0.01 0,-0.02 0.01,-0.02l0.07 0c0.01,0 0.01,0.01 0.01,0.02 0,0 0,0.01 -0.01,0.01zm0.15 0l-0.07 0c-0.01,0 -0.02,-0.01 -0.02,-0.01 0,-0.01 0.01,-0.02 0.02,-0.02l0.07 0c0.01,0 0.01,0.01 0.01,0.02 0,0 0,0.01 -0.01,0.01zm0.15 0l-0.08 0c0,0 -0.01,-0.01 -0.01,-0.01 0,-0.01 0.01,-0.02 0.01,-0.02l0.08 0c0,0 0.01,0.01 0.01,0.02 0,0 -0.01,0.01 -0.01,0.01zm0.14 0l-0.07 0c-0.01,0 -0.01,-0.01 -0.01,-0.01 0,-0.01 0,-0.02 0.01,-0.02l0.07 0c0.01,0 0.02,0.01 0.02,0.02 0,0 -0.01,0.01 -0.02,0.01zm0.15 0l-0.07 0c-0.01,0 -0.01,-0.01 -0.01,-0.01 0,-0.01 0,-0.02 0.01,-0.02l0.07 0c0.01,0 0.01,0.01 0.01,0.02 0,0 0,0.01 -0.01,0.01zm0.15 0l-0.08 0c0,0 -0.01,-0.01 -0.01,-0.01 0,-0.01 0.01,-0.02 0.01,-0.02l0.08 0c0,0 0,0 0,0 0.01,0 0.01,0.01 0.01,0.02 0,0 -0.01,0.01 -0.01,0.01zm-1.45 0.12c0,0 -0.01,-0.01 -0.01,-0.01l0 -0.08c0,0 0,0 0,0 0,0 0.01,-0.01 0.01,-0.01 0.01,0 0.02,0.01 0.01,0.01l0 0.08c0,0 0,0.01 -0.01,0.01zm1.49 0c0,0 -0.01,0 -0.01,-0.01l0 -0.07c0,-0.01 0.01,-0.02 0.01,-0.02 0.01,0 0.02,0.01 0.02,0.02l0 0.07c0,0.01 -0.01,0.01 -0.02,0.01zm-1.49 0.15c0,0 -0.01,-0.01 -0.01,-0.02l0 -0.07c0,-0.01 0.01,-0.01 0.01,-0.01 0.01,0 0.01,0 0.01,0.01l0 0.07c0,0.01 0,0.02 -0.01,0.02zm1.49 0c0,0 -0.01,-0.01 -0.01,-0.01l0 -0.08c0,0 0.01,-0.01 0.01,-0.01 0.01,0 0.02,0.01 0.02,0.01l0 0.08c0,0 -0.01,0.01 -0.02,0.01zm-1.49 0.14c0,0 -0.01,0 -0.01,-0.01l0 -0.07c0,-0.01 0.01,-0.01 0.01,-0.01 0.01,0 0.01,0 0.01,0.01l0 0.07c0,0.01 0,0.01 -0.01,0.01zm1.49 0l0 0c0,0 -0.01,0 -0.01,-0.01l0 -0.07c0,-0.01 0.01,-0.01 0.01,-0.01 0.01,0 0.02,0 0.02,0.01l0 0.07c0,0.01 -0.01,0.01 -0.02,0.01zm-1.37 0.05l-0.07 0c0,0 0,0 0,0 -0.01,0 -0.01,0 -0.01,-0.01 0,-0.01 0,-0.01 0.01,-0.01l0 0 0.07 0c0.01,0 0.01,0 0.01,0.01 0,0.01 0,0.01 -0.01,0.01zm0.15 0l-0.07 0c-0.01,0 -0.02,0 -0.02,-0.01 0,-0.01 0.01,-0.01 0.02,-0.01l0.07 0c0.01,0 0.01,0 0.01,0.01 0,0.01 0,0.01 -0.01,0.01zm0.15 0l-0.08 0c0,0 -0.01,0 -0.01,-0.01 0,-0.01 0.01,-0.01 0.01,-0.01l0.08 0c0,0 0.01,0 0.01,0.01 0,0.01 -0.01,0.01 -0.01,0.01zm0.14 0l-0.07 0c-0.01,0 -0.01,0 -0.01,-0.01 0,-0.01 0,-0.01 0.01,-0.01l0.07 0c0.01,0 0.02,0 0.02,0.01 0,0.01 -0.01,0.01 -0.02,0.01zm0.15 0l-0.07 0c-0.01,0 -0.02,0 -0.02,-0.01 0,-0.01 0.01,-0.01 0.02,-0.01l0.07 0c0.01,0 0.01,0 0.01,0.01 0,0.01 0,0.01 -0.01,0.01zm0.15 0l-0.08 0c0,0 -0.01,0 -0.01,-0.01 0,-0.01 0.01,-0.01 0.01,-0.01l0.08 0c0,0 0.01,0 0.01,0.01 0,0.01 -0.01,0.01 -0.01,0.01zm0.14 0l-0.07 0c-0.01,0 -0.01,0 -0.01,-0.01 0,-0.01 0,-0.01 0.01,-0.01l0.07 0c0.01,0 0.02,0 0.02,0.01 0,0.01 -0.01,0.01 -0.02,0.01zm0.15 0l-0.07 0c-0.01,0 -0.01,0 -0.01,-0.01 0,-0.01 0,-0.01 0.01,-0.01l0.07 0c0.01,0 0.01,0 0.01,0.01 0,0.01 0,0.01 -0.01,0.01zm0.15 0l-0.07 0c-0.01,0 -0.02,0 -0.02,-0.01 0,-0.01 0.01,-0.01 0.02,-0.01l0.07 0c0.01,0 0.01,0 0.01,0.01 0,0.01 0,0.01 -0.01,0.01zm0.15 0l-0.08 0c0,0 -0.01,0 -0.01,-0.01 0,-0.01 0.01,-0.01 0.01,-0.01l0.08 0c0,0 0.01,0 0.01,0.01 0,0.01 -0.01,0.01 -0.01,0.01z"/>
   <path class="fil14" d="M5.55 8.05l-0.07 0c-0.01,0 -0.02,-0.01 -0.02,-0.01 0,-0.01 0.01,-0.02 0.02,-0.02l0.07 0c0.01,0 0.01,0.01 0.01,0.02 0,0 0,0.01 -0.01,0.01zm0.14 0l-0.07 0c-0.01,0 -0.01,-0.01 -0.01,-0.01 0,-0.01 0,-0.02 0.01,-0.02l0.07 0c0.01,0 0.02,0.01 0.02,0.02 0,0 -0.01,0.01 -0.02,0.01zm0.15 0l-0.07 0c-0.01,0 -0.01,-0.01 -0.01,-0.01 0,-0.01 0,-0.02 0.01,-0.02l0.07 0c0.01,0 0.01,0.01 0.01,0.02 0,0 0,0.01 -0.01,0.01zm0.15 0l-0.08 0c0,0 -0.01,-0.01 -0.01,-0.01 0,-0.01 0.01,-0.02 0.01,-0.02l0.08 0c0,0 0.01,0.01 0.01,0.02 0,0 -0.01,0.01 -0.01,0.01zm0.14 0l-0.07 0c-0.01,0 -0.01,-0.01 -0.01,-0.01 0,-0.01 0,-0.02 0.01,-0.02l0.07 0c0.01,0 0.01,0.01 0.01,0.02 0,0 0,0.01 -0.01,0.01zm0.15 0l-0.08 0c0,0 -0.01,-0.01 -0.01,-0.01 0,-0.01 0.01,-0.02 0.01,-0.02l0.08 0c0,0 0.01,0.01 0.01,0.02 0,0 -0.01,0.01 -0.01,0.01zm0.14 0l-0.07 0c-0.01,0 -0.01,-0.01 -0.01,-0.01 0,-0.01 0,-0.02 0.01,-0.02l0.07 0c0.01,0 0.02,0.01 0.02,0.02 0,0 -0.01,0.01 -0.02,0.01zm0.15 0l-0.07 0c-0.01,0 -0.02,-0.01 -0.02,-0.01 0,-0.01 0.01,-0.02 0.02,-0.02l0.07 0c0.01,0 0.01,0.01 0.01,0.02 0,0 0,0.01 -0.01,0.01zm0.15 0l-0.08 0c0,0 -0.01,-0.01 -0.01,-0.01 0,-0.01 0.01,-0.02 0.01,-0.02l0.08 0c0,0 0.01,0.01 0.01,0.02 0,0 -0.01,0.01 -0.01,0.01zm0.14 0l-0.07 0c-0.01,0 -0.01,-0.01 -0.01,-0.01 0,-0.01 0,-0.02 0.01,-0.02l0.07 0c0.01,0 0.01,0.01 0.01,0.02 0,0 0,0.01 -0.01,0.01zm0.15 0l-0.08 0c0,0 -0.01,-0.01 -0.01,-0.01 0,-0.01 0.01,-0.02 0.01,-0.02l0.08 0c0,0 0.01,0.01 0.01,0.02 0,0 -0.01,0.01 -0.01,0.01zm0.14 0l-0.07 0c-0.01,0 -0.01,-0.01 -0.01,-0.01 0,-0.01 0,-0.02 0.01,-0.02l0.07 0c0.01,0 0.02,0.01 0.02,0.02 0,0 -0.01,0.01 -0.02,0.01zm0.15 0l-0.07 0c-0.01,0 -0.02,-0.01 -0.02,-0.01 0,-0.01 0.01,-0.02 0.02,-0.02l0.07 0c0.01,0 0.01,0.01 0.01,0.02 0,0 0,0.01 -0.01,0.01zm0.14 0l-0.07 0c-0.01,0 -0.01,-0.01 -0.01,-0.01 0,-0.01 0,-0.02 0.01,-0.02l0.07 0c0.01,0 0.02,0.01 0.02,0.02 0,0 -0.01,0.01 -0.02,0.01zm0.15 0l-0.07 0c-0.01,0 -0.01,-0.01 -0.01,-0.01 0,-0.01 0,-0.02 0.01,-0.02l0.07 0c0.01,0 0.01,0.01 0.01,0.02 0,0 0,0.01 -0.01,0.01zm0.15 0l-0.01 0c0,0 0,0 -0.01,0l-0.06 0c0,0 -0.01,-0.01 -0.01,-0.01 0,-0.01 0.01,-0.02 0.01,-0.02l0.06 0c0.01,0 0.01,0 0.02,0.01 0,0 0.01,0 0.01,0.01 0,0 -0.01,0.01 -0.01,0.01zm-2.38 0.07c0,0 0,0 0,0 -0.01,0 -0.01,-0.01 -0.01,-0.01 0.01,-0.03 0.03,-0.05 0.05,-0.06 0.01,-0.01 0.01,-0.01 0.02,0 0,0.01 0,0.01 -0.01,0.02 -0.01,0.01 -0.03,0.03 -0.04,0.05 0,0 0,0 -0.01,0zm2.48 0.02c0,0 -0.01,-0.01 -0.01,-0.01 -0.01,-0.02 -0.02,-0.04 -0.04,-0.06 0,0 0,-0.01 0,-0.01 0.01,-0.01 0.01,-0.01 0.02,0 0.02,0.01 0.04,0.04 0.04,0.06 0,0.01 0,0.02 -0.01,0.02 0,0 0,0 0,0zm-2.49 0.13c0,0 -0.01,-0.01 -0.01,-0.01l0 -0.08c0,0 0.01,-0.01 0.01,-0.01 0.01,0 0.01,0.01 0.01,0.01l0 0.08c0,0 0,0.01 -0.01,0.01zm2.5 0.01c-0.01,0 -0.02,0 -0.02,-0.01l0 -0.07c0,-0.01 0.01,-0.01 0.02,-0.01 0,0 0.01,0 0.01,0.01l0 0.07c0,0.01 -0.01,0.01 -0.01,0.01zm-2.5 0.14c0,0 -0.01,-0.01 -0.01,-0.02l0 -0.07c0,-0.01 0.01,-0.01 0.01,-0.01 0.01,0 0.01,0 0.01,0.01l0 0.07c0,0.01 0,0.02 -0.01,0.02zm2.5 0.01c-0.01,0 -0.02,-0.01 -0.02,-0.01l0 -0.08c0,0 0.01,-0.01 0.02,-0.01 0,0 0.01,0.01 0.01,0.01l0 0.08c0,0 -0.01,0.01 -0.01,0.01zm-2.5 0.13c0,0 -0.01,0 -0.01,-0.01l0 -0.07c0,-0.01 0.01,-0.02 0.01,-0.02 0.01,0 0.01,0.01 0.01,0.02l0 0.07c0,0.01 0,0.01 -0.01,0.01zm2.5 0.02c-0.01,0 -0.02,-0.01 -0.02,-0.02l0 -0.07c0,-0.01 0.01,-0.01 0.02,-0.01 0,0 0.01,0 0.01,0.01l0 0.07c0,0.01 -0.01,0.02 -0.01,0.02zm-2.5 0.13c0,0 -0.01,-0.01 -0.01,-0.02l0 -0.07c0,0 0.01,-0.01 0.01,-0.01 0.01,0 0.01,0.01 0.01,0.01l0 0.07c0,0.01 0,0.02 -0.01,0.02zm2.5 0.01c-0.01,0 -0.02,0 -0.02,-0.01l0 -0.07c0,-0.01 0.01,-0.02 0.02,-0.02 0,0 0.01,0.01 0.01,0.02l0 0.07c0,0.01 -0.01,0.01 -0.01,0.01zm-2.5 0.13c0,0 -0.01,0 -0.01,-0.01l0 -0.07c0,-0.01 0.01,-0.01 0.01,-0.01 0.01,0 0.01,0 0.01,0.01l0 0.07c0,0.01 0,0.01 -0.01,0.01zm2.5 0.02c-0.01,0 -0.02,-0.01 -0.02,-0.02l0 -0.07c0,0 0.01,-0.01 0.02,-0.01 0,0 0.01,0.01 0.01,0.01l0 0.07c0,0.01 -0.01,0.02 -0.01,0.02zm-2.5 0.13c0,0 -0.01,-0.01 -0.01,-0.01l0 -0.08c0,0 0.01,-0.01 0.01,-0.01 0.01,0 0.01,0.01 0.01,0.01l0 0.08c0,0 0,0.01 -0.01,0.01zm2.5 0.01c-0.01,0 -0.02,0 -0.02,-0.01l0 -0.07c0,-0.01 0.01,-0.01 0.02,-0.01 0,0 0.01,0 0.01,0.01l0 0.07c0,0.01 -0.01,0.01 -0.01,0.01zm-2.5 0.13c0,0 -0.01,0 -0.01,-0.01l0 -0.07c0,-0.01 0.01,-0.01 0.01,-0.01 0.01,0 0.01,0 0.01,0.01l0 0.07c0,0.01 0,0.01 -0.01,0.01zm2.5 0.02c-0.01,0 -0.02,-0.01 -0.02,-0.01l0 -0.08c0,0 0.01,-0.01 0.02,-0.01 0,0 0.01,0.01 0.01,0.01l0 0.08c0,0 -0.01,0.01 -0.01,0.01zm-2.5 0.13c0,0 -0.01,-0.01 -0.01,-0.01l0 -0.07c0,-0.01 0.01,-0.02 0.01,-0.02 0.01,0 0.01,0.01 0.01,0.02l0 0.07c0,0 0,0.01 -0.01,0.01zm2.5 0.01c-0.01,0 -0.02,0 -0.02,-0.01l0 -0.07c0,-0.01 0.01,-0.01 0.02,-0.01 0,0 0.01,0 0.01,0.01l0 0.07c0,0.01 -0.01,0.01 -0.01,0.01zm-2.5 0.14c0,0 -0.01,-0.01 -0.01,-0.02l0 -0.07c0,-0.01 0.01,-0.01 0.01,-0.01 0.01,0 0.01,0 0.01,0.01l0 0.07c0,0.01 0,0.02 -0.01,0.02zm2.5 0.01c-0.01,0 -0.02,-0.01 -0.02,-0.01l0 -0.07c0,-0.01 0.01,-0.02 0.02,-0.02 0,0 0.01,0.01 0.01,0.02l0 0.07c0,0 -0.01,0.01 -0.01,0.01zm-2.5 0.13c0,0 -0.01,0 -0.01,-0.01l0 -0.07c0,-0.01 0.01,-0.02 0.01,-0.02 0.01,0 0.01,0.01 0.01,0.02l0 0.07c0,0.01 0,0.01 -0.01,0.01zm2.5 0.02c-0.01,0 -0.02,-0.01 -0.02,-0.02l0 -0.07c0,-0.01 0.01,-0.01 0.02,-0.01 0,0 0.01,0 0.01,0.01l0 0.07c0,0.01 -0.01,0.02 -0.01,0.02zm-2.5 0.13c0,0 -0.01,-0.01 -0.01,-0.01l0 -0.08c0,0 0.01,-0.01 0.01,-0.01 0.01,0 0.01,0.01 0.01,0.01l0 0.08c0,0 0,0.01 -0.01,0.01zm2.5 0.01c-0.01,0 -0.02,0 -0.02,-0.01l0 -0.07c0,-0.01 0.01,-0.02 0.02,-0.02 0,0 0.01,0.01 0.01,0.02l0 0.07c0,0.01 -0.01,0.01 -0.01,0.01zm-2.45 0.12c-0.01,0 -0.01,0 -0.01,0 -0.02,-0.02 -0.04,-0.04 -0.05,-0.07 0,-0.01 0.01,-0.01 0.01,-0.01 0.01,-0.01 0.02,0 0.02,0 0,0.03 0.02,0.04 0.03,0.06 0.01,0 0.01,0.01 0,0.02 0,0 0,0 0,0zm2.39 0.01c0,0 -0.01,0 -0.01,-0.01 0,0 0,-0.01 0,-0.01 0.02,-0.02 0.04,-0.03 0.05,-0.05 0,-0.01 0,-0.01 0.01,-0.01 0.01,0 0.01,0.01 0.01,0.02 -0.01,0.02 -0.03,0.04 -0.05,0.06 0,0 -0.01,0 -0.01,0zm-2.26 0.02l-0.05 0c-0.01,0 -0.01,0 -0.02,0 -0.01,0 -0.01,-0.01 -0.01,-0.01 0,-0.01 0.01,-0.02 0.01,-0.01 0.01,0 0.01,0 0.02,0l0.05 0c0.01,0 0.02,0 0.02,0.01 0,0 -0.01,0.01 -0.02,0.01zm0.15 0l-0.07 0c-0.01,0 -0.02,-0.01 -0.02,-0.01 0,-0.01 0.01,-0.01 0.02,-0.01l0.07 0c0.01,0 0.01,0 0.01,0.01 0,0 0,0.01 -0.01,0.01zm0.15 0l-0.08 0c0,0 -0.01,-0.01 -0.01,-0.01 0,-0.01 0.01,-0.01 0.01,-0.01l0.08 0c0,0 0.01,0 0.01,0.01 0,0 -0.01,0.01 -0.01,0.01zm0.14 0l-0.07 0c-0.01,0 -0.01,-0.01 -0.01,-0.01 0,-0.01 0,-0.01 0.01,-0.01l0.07 0c0.01,0 0.01,0 0.01,0.01 0,0 0,0.01 -0.01,0.01zm0.15 0l-0.08 0c0,0 -0.01,-0.01 -0.01,-0.01 0,-0.01 0.01,-0.01 0.01,-0.01l0.08 0c0,0 0.01,0 0.01,0.01 0,0 -0.01,0.01 -0.01,0.01zm0.14 0l-0.07 0c-0.01,0 -0.01,-0.01 -0.01,-0.01 0,-0.01 0,-0.01 0.01,-0.01l0.07 0c0.01,0 0.02,0 0.02,0.01 0,0 -0.01,0.01 -0.02,0.01zm0.15 0l-0.07 0c-0.01,0 -0.02,-0.01 -0.02,-0.01 0,-0.01 0.01,-0.01 0.02,-0.01l0.07 0c0.01,0 0.01,0 0.01,0.01 0,0 0,0.01 -0.01,0.01zm0.15 0l-0.08 0c0,0 -0.01,-0.01 -0.01,-0.01 0,-0.01 0.01,-0.01 0.01,-0.01l0.08 0c0,0 0.01,0 0.01,0.01 0,0 -0.01,0.01 -0.01,0.01zm0.14 0l-0.07 0c-0.01,0 -0.01,-0.01 -0.01,-0.01 0,-0.01 0,-0.01 0.01,-0.01l0.07 0c0.01,0 0.01,0 0.01,0.01 0,0 0,0.01 -0.01,0.01zm0.15 0l-0.08 0c0,0 -0.01,-0.01 -0.01,-0.01 0,-0.01 0.01,-0.01 0.01,-0.01l0.08 0c0,0 0.01,0 0.01,0.01 0,0 -0.01,0.01 -0.01,0.01zm0.14 0l-0.07 0c-0.01,0 -0.01,-0.01 -0.01,-0.01 0,-0.01 0,-0.01 0.01,-0.01l0.07 0c0.01,0 0.01,0 0.01,0.01 0,0 0,0.01 -0.01,0.01zm0.15 0l-0.07 0c-0.01,0 -0.02,-0.01 -0.02,-0.01 0,-0.01 0.01,-0.01 0.02,-0.01l0.07 0c0.01,0 0.01,0 0.01,0.01 0,0 0,0.01 -0.01,0.01zm0.14 0l-0.07 0c-0.01,0 -0.01,-0.01 -0.01,-0.01 0,-0.01 0,-0.01 0.01,-0.01l0.07 0c0.01,0 0.02,0 0.02,0.01 0,0 -0.01,0.01 -0.02,0.01zm0.15 0l-0.07 0c-0.01,0 -0.02,-0.01 -0.02,-0.01 0,-0.01 0.01,-0.01 0.02,-0.01l0.07 0c0.01,0 0.01,0 0.01,0.01 0,0 0,0.01 -0.01,0.01zm0.15 0l-0.08 0c0,0 -0.01,-0.01 -0.01,-0.01 0,-0.01 0.01,-0.01 0.01,-0.01l0.08 0c0,0 0.01,0 0.01,0.01 0,0 -0.01,0.01 -0.01,0.01zm0.14 0l-0.07 0c-0.01,0 -0.01,-0.01 -0.01,-0.01 0,-0.01 0,-0.01 0.01,-0.01l0.07 0c0.01,0 0.01,0 0.01,0.01 0,0 0,0.01 -0.01,0.01z"/>
   <path class="fil17" d="M8.43 7.66l-2.95 0c-0.06,0 -0.11,-0.06 -0.11,-0.12l0 -1.61c0,-0.06 0.05,-0.12 0.11,-0.12l2.95 0c0.06,0 0.12,0.06 0.12,0.12l0 1.61c0,0.06 -0.06,0.12 -0.12,0.12z"/>
   <path class="fil3" d="M6.6 6.37l0 0.73c0,0.05 0.05,0.07 0.09,0.05l0.55 -0.37c0.04,-0.02 0.04,-0.07 0,-0.09l-0.55 -0.37c-0.04,-0.02 -0.09,0 -0.09,0.05z"/>
   <path class="fil2" d="M5.53 7.49c0,-0.03 0.03,-0.06 0.06,-0.06 0.03,0 0.06,0.03 0.06,0.06 0,0.03 -0.03,0.06 -0.06,0.06 -0.03,0 -0.06,-0.03 -0.06,-0.06z"/>
   <path class="fil2" d="M8.19 7.5l-2.58 0c-0.01,0 -0.02,0 -0.02,-0.01 0,-0.01 0.01,-0.02 0.02,-0.02l2.58 0c0,0 0.01,0.01 0.01,0.02 0,0.01 -0.01,0.01 -0.01,0.01z"/>
   <polygon class="fil20" points="8.34,10.49 9.98,10.49 9.98,8.04 8.34,8.04 "/>
   <path class="fil11" d="M9.32 8.82l-0.02 0 0 -0.1c0,-0.03 0.03,-0.06 0.06,-0.06l0.28 0c0.02,0 0.04,-0.02 0.04,-0.03l0.05 -0.17c0,-0.01 0,-0.03 -0.01,-0.04 -0.01,-0.01 -0.02,-0.02 -0.03,-0.02l-0.37 0 0 -0.02 0.37 0c0.02,0 0.03,0.01 0.05,0.03 0.01,0.01 0.01,0.03 0.01,0.05l-0.05 0.17c0,0.03 -0.03,0.05 -0.06,0.05l-0.28 0c-0.02,0 -0.04,0.02 -0.04,0.04l0 0.1z"/>
   <path class="fil3" d="M9.58 8.49l-0.48 0c-0.04,0 -0.07,-0.04 -0.07,-0.08l0 -0.04c0,-0.04 0.03,-0.07 0.07,-0.07l0.48 0c0.04,0 0.07,0.03 0.07,0.07l0 0.04c0,0.04 -0.03,0.08 -0.07,0.08z"/>
   <path class="fil11" d="M9.31 9.24l0 0c-0.04,0 -0.06,-0.02 -0.06,-0.06l0 -0.37c0,-0.04 0.02,-0.06 0.06,-0.06 0.03,0 0.06,0.02 0.06,0.06l0 0.37c0,0.04 -0.03,0.06 -0.06,0.06z"/>
   <path class="fil5" d="M11.67 10.06c0,0 0.05,0.13 0.04,0.16 0,0.03 -0.03,0.13 -0.05,0.16 -0.01,0.02 -0.02,-0.11 -0.04,-0.13 -0.01,-0.02 0,0.05 -0.01,0.06 -0.01,0 -0.04,-0.06 -0.05,-0.08 -0.01,-0.02 0.03,-0.09 0.03,-0.14 0,-0.06 0.08,-0.03 0.08,-0.03z"/>
   <path class="fil8" d="M10.67 9.02c-0.01,-0.15 0.16,-0.26 0.28,-0.18 0.01,0 0.01,0 0.01,0.01 0.2,0.12 0.61,0.7 0.64,0.76 0.03,0.06 0.11,0.52 0.11,0.52 0,0 -0.1,0.04 -0.15,0 0,0 -0.17,-0.44 -0.19,-0.46 -0.03,-0.03 -0.68,-0.39 -0.69,-0.53 0,-0.04 0,-0.08 -0.01,-0.12z"/>
   <path class="fil21" d="M11.84 12.41c0,0 0.08,0.07 0.06,0.12 -0.01,0.05 -0.08,0.08 -0.09,0.14 -0.01,0.07 -0.05,0.1 -0.08,0.1 -0.04,0 -0.17,0 -0.17,0 0,0 -0.02,-0.04 0.04,-0.06 0.06,-0.01 0.08,-0.08 0.08,-0.15 -0.01,-0.07 0,-0.16 0,-0.16l0.13 -0.03 0.03 0.04z"/>
   <path class="fil21" d="M10.89 12.59c0,0 0.01,0.16 -0.03,0.18l-0.43 0c0,0 0,-0.05 0.07,-0.06 0.07,-0.01 0.19,-0.06 0.21,-0.15 0.02,-0.09 0.18,0.03 0.18,0.03z"/>
   <path class="fil3" d="M10.52 10.31c0,0 0.02,0.28 0.05,0.62 0.03,0.47 0.08,1.03 0.08,1.14 0.01,0.19 0.04,0.49 0.04,0.49 0,0 0.07,0.07 0.22,0.04 0,0 0.12,-0.43 0.16,-0.88 0,-0.01 0,-0.02 0,-0.02 0.04,-0.46 0.09,-1.43 0.09,-1.43l-0.64 0.04z"/>
   <path class="fil22" d="M10.52 10.31c0,0 0.02,0.28 0.05,0.62l0.5 0.79c0,-0.01 0,-0.02 0,-0.02 0.04,-0.46 0.09,-1.43 0.09,-1.43l-0.64 0.04z"/>
   <path class="fil3" d="M10.62 10.34c0,0 0.42,1.03 0.69,1.51 0.27,0.48 0.36,0.62 0.36,0.62 0,0 0.16,-0.06 0.17,-0.11 0,0 -0.11,-0.93 -0.29,-1.15 -0.1,-0.13 -0.22,-0.52 -0.23,-0.65 0,-0.14 -0.04,-0.4 -0.04,-0.4l-0.66 0.18z"/>
   <path class="fil5" d="M10.98 8.8c0,0 -0.28,0.15 -0.44,0.1 0,0 0.04,-0.05 0.11,-0.09 -0.01,-0.03 -0.02,-0.06 -0.02,-0.09 -0.01,-0.05 -0.01,-0.08 -0.01,-0.08l0.11 -0.09 0.1 -0.08c0,0.23 0.15,0.33 0.15,0.33z"/>
   <path class="fil11" d="M11.26 10.24c-0.12,0.07 -0.22,0.12 -0.35,0.15 -0.14,0.03 -0.32,0.02 -0.39,0.03 0,0 -0.01,0 -0.01,0 -0.01,-0.01 -0.03,-0.19 -0.06,-0.41 0,-0.01 0,-0.02 0,-0.03l0 0c-0.01,-0.09 -0.02,-0.18 -0.03,-0.28 -0.01,-0.07 -0.01,-0.14 -0.02,-0.21 0,-0.08 0,-0.16 0,-0.22 0,-0.03 0,-0.06 0,-0.08 0.02,-0.13 0.08,-0.23 0.14,-0.3l0.05 -0.05c0.06,0 0.12,-0.01 0.17,-0.05 0.06,-0.04 0.13,-0.08 0.14,-0.07 0.09,0.05 0.17,0.18 0.22,0.35 0.03,0.1 0.05,0.21 0.07,0.33 0,0.04 0.01,0.08 0.01,0.12 0,0 0,0.01 0,0.02 0.01,0.1 0.02,0.2 0.03,0.28 0.02,0.12 0.04,0.22 0.06,0.29 0,0.03 0.01,0.06 0.01,0.08 0,0.02 -0.03,0.04 -0.04,0.05z"/>
   <path class="fil10" d="M10.83 8.55c0,0 -0.06,0.14 -0.2,0.17 -0.01,-0.05 -0.01,-0.08 -0.01,-0.08l0.11 -0.09 0.1 0z"/>
   <path class="fil5" d="M10.57 8.64c0,0 0.27,0.03 0.29,-0.13 0.03,-0.17 0.08,-0.27 -0.09,-0.3 -0.18,-0.04 -0.22,0.02 -0.24,0.08 -0.02,0.05 -0.03,0.33 0.04,0.35z"/>
   <path class="fil4" d="M10.96 8.18c0,0 0,0 0.02,0 0,0 -0.01,-0.01 -0.03,-0.01 0,-0.02 -0.01,-0.05 -0.04,-0.06 0,0 0.02,0.01 0.02,0.03 -0.04,-0.03 -0.11,-0.06 -0.32,-0.04 -0.27,0.03 -0.17,0.2 -0.14,0.22 0.04,0.02 0.12,-0.04 0.19,-0.03 0.06,0 0.08,0.09 0.1,0.11 0.02,0.01 0.01,-0.01 0.04,-0.03 0.03,-0.01 0.04,0.04 0.03,0.07 -0.01,0.03 0.03,0.07 0.03,0.07 0,0 0,0 0.04,-0.04 0.05,-0.05 0.08,-0.24 0.06,-0.28 0,0 0,0 0,-0.01z"/>
   <path class="fil8" d="M10.87 9.28c0,0 -0.23,0.17 -0.47,0.21 0,-0.08 0,-0.16 0,-0.22l0.47 0.01z"/>
   <path class="fil5" d="M9.48 9.06c-0.01,0 -0.05,-0.16 -0.13,-0.15 -0.05,0.01 -0.14,0.04 -0.12,0.11 0.01,0.03 0.17,0.12 0.17,0.12l0.08 -0.08z"/>
   <path class="fil11" d="M10.9 8.95c0.13,0.08 0.12,0.27 -0.02,0.33 0,0 -0.01,0 -0.01,0 -0.21,0.09 -0.93,0.09 -0.99,0.08 -0.06,-0.01 -0.49,-0.21 -0.49,-0.21 0,0 0.03,-0.1 0.09,-0.12 0,0 0.46,0.11 0.49,0.11 0.03,-0.01 0.71,-0.33 0.82,-0.26 0.03,0.02 0.07,0.05 0.11,0.07z"/>
   <path class="fil16" d="M15.7 3.87l-0.57 0c-0.02,0 -0.04,-0.02 -0.04,-0.04 0,-0.02 0.02,-0.04 0.04,-0.04l0.57 0c0.02,0 0.04,0.02 0.04,0.04 0,0.02 -0.02,0.04 -0.04,0.04z"/>
   <path class="fil16" d="M15.7 4.04l-0.57 0c-0.02,0 -0.04,-0.02 -0.04,-0.04 0,-0.02 0.02,-0.04 0.04,-0.04l0.57 0c0.02,0 0.04,0.02 0.04,0.04 0,0.02 -0.02,0.04 -0.04,0.04z"/>
   <path class="fil16" d="M15.7 4.22l-0.57 0c-0.02,0 -0.04,-0.02 -0.04,-0.05 0,-0.02 0.02,-0.04 0.04,-0.04l0.57 0c0.02,0 0.04,0.02 0.04,0.04 0,0.03 -0.02,0.05 -0.04,0.05z"/>
   <path class="fil16" d="M13.47 8.31l-1.35 0c-0.03,0 -0.06,-0.02 -0.06,-0.06 0,-0.03 0.03,-0.05 0.06,-0.05l1.35 0c0.04,0 0.06,0.02 0.06,0.05 0,0.04 -0.02,0.06 -0.06,0.06z"/>
   <path class="fil16" d="M6.86 4.36l-1.35 0c-0.03,0 -0.05,-0.02 -0.05,-0.06 0,-0.03 0.02,-0.05 0.05,-0.05l1.35 0c0.04,0 0.06,0.02 0.06,0.05 0,0.04 -0.02,0.06 -0.06,0.06z"/>
   <path class="fil16" d="M13.47 8.88l-1.35 0c-0.03,0 -0.06,-0.02 -0.06,-0.06 0,-0.03 0.03,-0.05 0.06,-0.05l1.35 0c0.04,0 0.06,0.02 0.06,0.05 0,0.04 -0.02,0.06 -0.06,0.06z"/>
   <path class="fil16" d="M13.47 8.6l-1.61 0c-0.03,0 -0.06,-0.03 -0.06,-0.06 0,-0.03 0.03,-0.06 0.06,-0.06l1.61 0c0.04,0 0.06,0.03 0.06,0.06 0,0.03 -0.02,0.06 -0.06,0.06z"/>
   <path class="fil16" d="M6.46 4.72l-0.76 0c-0.02,0 -0.04,-0.02 -0.04,-0.04l0 -0.03c0,-0.02 0.02,-0.04 0.04,-0.04l0.76 0c0.03,0 0.05,0.02 0.05,0.04l0 0.03c0,0.02 -0.02,0.04 -0.05,0.04z"/>
   <path class="fil16" d="M5.4 4.67c0,-0.04 0.03,-0.06 0.06,-0.06 0.03,0 0.06,0.02 0.06,0.06 0,0.03 -0.03,0.05 -0.06,0.05 -0.03,0 -0.06,-0.02 -0.06,-0.05z"/>
   <path class="fil16" d="M6.61 4.95l-0.91 0c-0.02,0 -0.04,-0.02 -0.04,-0.05l0 -0.02c0,-0.02 0.02,-0.04 0.04,-0.04l0.91 0c0.02,0 0.05,0.02 0.05,0.04l0 0.02c0,0.03 -0.03,0.05 -0.05,0.05z"/>
   <path class="fil16" d="M5.4 4.89c0,-0.03 0.03,-0.05 0.06,-0.05 0.03,0 0.06,0.02 0.06,0.05 0,0.04 -0.03,0.06 -0.06,0.06 -0.03,0 -0.06,-0.02 -0.06,-0.06z"/>
   <path class="fil16" d="M6.46 5.2l-0.76 0c-0.02,0 -0.04,-0.02 -0.04,-0.04l0 -0.03c0,-0.02 0.02,-0.04 0.04,-0.04l0.76 0c0.03,0 0.05,0.02 0.05,0.04l0 0.03c0,0.02 -0.02,0.04 -0.05,0.04z"/>
   <path class="fil16" d="M5.4 5.14c0,-0.03 0.03,-0.05 0.06,-0.05 0.03,0 0.06,0.02 0.06,0.05 0,0.03 -0.03,0.06 -0.06,0.06 -0.03,0 -0.06,-0.03 -0.06,-0.06z"/>
   <path class="fil14" d="M7.7 4.53c-0.06,0.06 -0.06,0.17 0,0.24 0.03,0.03 0.08,0.05 0.12,0.05 0.05,0 0.09,-0.02 0.12,-0.05 0.07,-0.06 0.07,-0.17 0,-0.24 -0.06,-0.06 -0.17,-0.07 -0.24,0zm0.15 0.32c-0.01,0 -0.02,0 -0.03,0 -0.05,0 -0.1,-0.02 -0.14,-0.06 -0.08,-0.08 -0.08,-0.21 0,-0.28l0 0c0.08,-0.08 0.21,-0.08 0.29,0 0.08,0.08 0.08,0.21 0,0.29 -0.04,0.03 -0.08,0.05 -0.12,0.05z"/>
   <polygon class="fil14" points="7.5,4.99 7.48,4.96 7.68,4.77 7.7,4.79 "/>
   <path class="fil14" d="M7.42 5.04l0 0c-0.01,-0.01 -0.01,-0.03 0,-0.04l0.12 -0.11c0.01,-0.02 0.03,-0.02 0.04,0 0.01,0.01 0.01,0.03 0,0.04l-0.11 0.11c-0.02,0.01 -0.04,0.01 -0.05,0z"/>
   <path class="fil15" d="M15.24 12.77l0 0c-0.02,0 -0.05,-0.01 -0.06,-0.04l-1.56 -4.75c-0.01,-0.02 0.01,-0.04 0.03,-0.04 0.03,0 0.06,0.02 0.07,0.04l1.56 4.75c0,0.02 -0.01,0.04 -0.04,0.04z"/>
   <path class="fil15" d="M16.5 12.77l0 0c-0.03,0 -0.05,-0.02 -0.06,-0.05l-1.56 -4.75c-0.01,-0.02 0.01,-0.04 0.03,-0.04 0.03,0 0.05,0.02 0.06,0.04l1.56 4.75c0.01,0.03 0,0.05 -0.03,0.05z"/>
   <path class="fil15" d="M15.15 8.64l-1.27 0c-0.02,0 -0.05,-0.01 -0.05,-0.04 -0.01,-0.02 0,-0.04 0.03,-0.04l1.26 0c0.02,0 0.05,0.01 0.06,0.04 0,0.02 -0.01,0.04 -0.03,0.04z"/>
   <path class="fil15" d="M15.42 9.47l-1.26 0c-0.03,0 -0.05,-0.01 -0.06,-0.04 -0.01,-0.02 0.01,-0.04 0.03,-0.04l1.26 0c0.03,0 0.05,0.01 0.06,0.04 0.01,0.02 -0.01,0.04 -0.03,0.04z"/>
   <path class="fil15" d="M15.68 10.26l-1.26 0.01c-0.03,0 -0.05,-0.02 -0.06,-0.04 -0.01,-0.02 0.01,-0.04 0.03,-0.04l1.26 0c0.03,0 0.05,0.01 0.06,0.03 0.01,0.03 -0.01,0.04 -0.03,0.04z"/>
   <path class="fil15" d="M15.98 11.16l-1.27 0.01c-0.02,0 -0.05,-0.02 -0.05,-0.04 -0.01,-0.02 0,-0.04 0.03,-0.04l1.26 -0.01c0.02,0 0.05,0.02 0.06,0.04 0,0.03 -0.01,0.04 -0.03,0.04z"/>
   <path class="fil15" d="M16.28 12.11l-1.26 0c-0.02,0 -0.05,-0.02 -0.05,-0.04 -0.01,-0.02 0,-0.04 0.03,-0.04l1.26 0c0.02,0 0.05,0.01 0.06,0.04 0,0.02 -0.01,0.04 -0.04,0.04z"/>
   <path class="fil15" d="M13.57 5.81l0 0c-0.01,0 -0.02,-0.01 -0.02,-0.02l-0.02 -0.1c-0.01,-0.01 0,-0.02 0.01,-0.02 0.01,-0.01 0.02,0 0.02,0.01l0.02 0.11c0,0.01 0,0.01 -0.01,0.02z"/>
   <polygon class="fil15" points="13.54,5.64 13.53,5.64 13.5,5.49 13.51,5.49 "/>
   <path class="fil5" d="M13.51 4.64c0,0 -0.01,-0.1 -0.04,-0.14 -0.02,-0.04 -0.12,-0.07 -0.12,-0.06 -0.02,0.01 0.05,0.08 0.06,0.1 0,0.03 -0.04,0.01 -0.02,0.06 0.01,0.03 0.07,0.08 0.07,0.08l0.05 -0.04z"/>
   <path class="fil23" d="M13.47 4.63c0.03,-0.03 0.04,-0.03 0.04,-0.03 0,0 0.32,0.28 0.35,0.3 0.03,0.03 0.51,0.17 0.51,0.17l0.08 0.39c0,0 -0.65,-0.31 -0.73,-0.38 -0.13,-0.1 -0.29,-0.4 -0.29,-0.4 0,0 0.01,-0.03 0.04,-0.05z"/>
   <path class="fil24" d="M14.38 8.4c0,0 0,0.13 -0.03,0.16l-0.35 0c0,-0.01 0,-0.04 0.05,-0.05 0.06,-0.01 0.13,-0.05 0.17,-0.14 0.04,-0.08 0.16,0.03 0.16,0.03z"/>
   <path class="fil24" d="M15.09 8.38c0,0 0.02,0.17 -0.01,0.18 -0.01,0 -0.15,0 -0.21,0 -0.07,0 -0.19,0 -0.19,0 -0.01,0 -0.02,-0.02 -0.01,-0.03 0.01,-0.01 0.02,-0.03 0.05,-0.03 0.06,-0.01 0.17,-0.06 0.2,-0.14 0.04,-0.09 0.17,0.02 0.17,0.02z"/>
   <path class="fil8" d="M14.2 6.55c0,0 0.1,0.35 0.38,0.96 0.29,0.6 0.3,0.89 0.3,0.89 0,0 0.04,0.02 0.1,0.01 0.06,-0.01 0.11,-0.03 0.11,-0.03 0,0 -0.02,-0.72 -0.16,-1.03 -0.13,-0.3 -0.16,-1.14 -0.16,-1.14l-0.57 0.34z"/>
   <path class="fil15" d="M14.04 6.25c0,0 -0.01,0.54 0.08,1.2 0.1,0.67 0.05,0.97 0.05,0.97 0,0 0.03,0.02 0.1,0.02 0.09,0 0.14,-0.04 0.14,-0.04 0,0 0.13,-0.66 0.09,-0.99 -0.03,-0.33 0.19,-1.14 0.19,-1.14l-0.65 -0.02z"/>
   <path class="fil5" d="M14.48 4.99l-0.11 0.08 -0.15 -0.03c0,-0.02 0.01,-0.07 0.02,-0.13 0,0 0,0 0,-0.01 0.01,-0.04 0.02,-0.08 0.02,-0.08l0.14 -0.07 0.05 -0.03c0,0.01 0,0.05 0,0.06 -0.01,0.13 0.03,0.21 0.03,0.21z"/>
   <path class="fil3" d="M14.78 6.32c-0.03,0.16 -0.77,0.09 -0.76,-0.01 0,0 0,-0.05 0,-0.11 0.01,-0.13 0.02,-0.33 0.02,-0.34l0 -0.01c0.01,-0.13 0.03,-0.26 0.03,-0.35 0,-0.07 0.01,-0.15 0.02,-0.22 0.01,-0.06 0.03,-0.12 0.04,-0.16 0.01,-0.03 0.03,-0.06 0.05,-0.08 0.02,-0.02 0.04,-0.03 0.06,-0.04 0.01,0 0.01,0 0.02,-0.01 0.08,-0.02 0.2,-0.05 0.24,-0.04 0.08,0.02 0.15,0.18 0.2,0.38 0.08,0.37 0.1,0.89 0.08,0.99z"/>
   <path class="fil25" d="M14.44 4.78c-0.03,0.06 -0.15,0.11 -0.2,0.13 0,0 0,0 0,-0.01 0.01,-0.04 0.02,-0.08 0.02,-0.08l0.14 -0.07c0.03,0 0.05,0.01 0.04,0.03z"/>
   <path class="fil5" d="M14.19 4.81c0,0 0.26,0.08 0.3,-0.08 0.05,-0.16 0.12,-0.26 -0.05,-0.31 -0.16,-0.06 -0.21,-0.01 -0.24,0.04 -0.03,0.05 -0.08,0.33 -0.01,0.35z"/>
   <path class="fil24" d="M14.21 4.44c0,0 0.02,0.19 0.06,0.18 0.04,0 0.07,-0.01 0.07,0.05 -0.01,0.05 -0.06,0.12 0.06,0.13 0.12,0.01 0.29,-0.3 0.25,-0.36 -0.09,-0.17 -0.57,-0.2 -0.44,0z"/>
   <path class="fil23" d="M14.02 6.2c0.01,-0.13 0.02,-0.33 0.02,-0.34l0 -0.01 0.43 -0.26c0,0 0.02,0.61 -0.45,0.61z"/>
   <path class="fil5" d="M13.68 5.66c0,0 -0.09,-0.06 -0.11,-0.07 -0.01,0 -0.07,-0.01 -0.07,0 0,0 -0.01,0.01 0,0.02 0.01,0 0.02,0 0.02,0.01 -0.01,0 -0.04,-0.02 -0.05,0 -0.01,0.02 -0.02,0.08 0.02,0.1 0.05,0.02 0.15,0 0.16,0 0.06,0.02 0.03,-0.06 0.03,-0.06z"/>
   <path class="fil3" d="M13.68 5.64c0,0 0.43,0.08 0.47,0.06 0.06,-0.03 -0.03,-0.47 -0.03,-0.47 0,0 0,-0.1 0.12,-0.12 0.1,-0.02 0.19,0.05 0.19,0.05 0,0 0.09,0.08 0.08,0.17 -0.02,0.19 -0.06,0.59 -0.19,0.65 -0.17,0.08 -0.66,-0.22 -0.66,-0.22 0,0 -0.01,-0.02 -0.01,-0.05 0,-0.04 0.03,-0.07 0.03,-0.07z"/>
   <path class="fil5" d="M13.39 4.59c0,0 -0.03,-0.05 -0.04,-0.07 0,-0.01 0.01,0 0.02,0 0.01,0.01 0.03,0.04 0.04,0.04 0.02,-0.01 -0.02,0.03 -0.02,0.03z"/>
  </g>
 </g>
</svg>
